<svg xmlns="http://www.w3.org/2000/svg" viewBox="0 0 94 43"><defs><style>.cls-1{fill:#65c063;stroke:#4b724a;stroke-width:3px;}</style></defs><title>Asset 6</title><g id="Layer_2" data-name="Layer 2"><g id="Layer_1-2" data-name="Layer 1"><rect class="cls-1" x="1.5" y="1.5" width="91" height="40" rx="8.5"/><path d="M37.33,20.92a3.05,3.05,0,0,1,2,.84,2.31,2.31,0,0,1,.65,1.66,2.89,2.89,0,0,1-.74,1.87,4.81,4.81,0,0,1-1.86,1.37A5.32,5.32,0,0,1,36,27a15.16,15.16,0,0,1-1.67.09,16.69,16.69,0,0,1-2.95-.27,1.67,1.67,0,0,1-.58-.27.76.76,0,0,1-.29-.63c0-1.11-.05-2.64-.12-4.61l0-1c-.05-1.54-.07-2.74-.07-3.62a.86.86,0,0,1,.27-.54,1,1,0,0,1,.68-.36l.45,0c1.36-.13,2.26-.2,2.72-.2a9.31,9.31,0,0,1,2.37.27,3.52,3.52,0,0,1,1.73.94,2.28,2.28,0,0,1,.42.74,2.59,2.59,0,0,1,.16.84,2.82,2.82,0,0,1-.47,1.62A2.17,2.17,0,0,1,37.33,20.92Zm-2.8-3.86a11.42,11.42,0,0,0-1.28.08,6.81,6.81,0,0,0-1.1.18l.11,3.4.65,0c1-.11,1.81-.2,2.3-.27a2.77,2.77,0,0,0,.92-.41,4.46,4.46,0,0,0,.74-.67,1.05,1.05,0,0,0,.3-.54,1.31,1.31,0,0,0-.11-.54,1.17,1.17,0,0,0-.23-.41,2.37,2.37,0,0,0-1-.63A4.29,4.29,0,0,0,34.53,17.06Zm-2.22,8.39a12,12,0,0,0,1.75.13,7.18,7.18,0,0,0,2.86-.47A1.83,1.83,0,0,0,38,23.27q0-.54-.81-.9A4.24,4.24,0,0,0,35.43,22a11,11,0,0,0-1.61.15c-.51.07-1,.12-1.51.14,0,.72,0,1.18,0,1.37,0,.37,0,.65,0,.85Zm11.51-8.89c0,.35,0,.81,0,1.39l0,1.17A13.55,13.55,0,0,0,44,22a6,6,0,0,0,1.08,2.5,2.06,2.06,0,0,0,1.64.77,2.19,2.19,0,0,0,1.35-.45A3.23,3.23,0,0,0,49,23.65a6.27,6.27,0,0,0,.54-2.75c0-.66,0-1.44-.13-2.34s-.11-1.77-.11-2.27c0-.26.16-.43.47-.5a3.49,3.49,0,0,1,1-.13.68.68,0,0,1,.42.23.74.74,0,0,1,.23.51c0,.36,0,.7,0,1s0,.62,0,.76c0,.46,0,1.09.07,1.91,0,.2,0,.45,0,.74s0,.61,0,1a5.49,5.49,0,0,1-.6,2.44,5.28,5.28,0,0,1-1.62,2,3.83,3.83,0,0,1-2.36.78,4,4,0,0,1-3.15-1.3,7.24,7.24,0,0,1-1.54-3.38,17.83,17.83,0,0,1-.31-2.49c0-.86,0-2,0-3.47a.74.74,0,0,1,.27-.54.89.89,0,0,1,.61-.25C43.44,15.61,43.82,15.92,43.82,16.56Zm18.31,2.11a4,4,0,0,1-.52-.42,8.45,8.45,0,0,0-1.1-.74,2.13,2.13,0,0,0-1-.25,6.58,6.58,0,0,0-1.58.2,3.78,3.78,0,0,0-1.28.56,2.76,2.76,0,0,0-1,1.47,7.83,7.83,0,0,0-.27,2.22,3.81,3.81,0,0,0,.87,2.46,3.48,3.48,0,0,0,1.26.92,3.74,3.74,0,0,0,1.51.33,3.25,3.25,0,0,0,2.59-1,2.92,2.92,0,0,0,.61-1.89c0-.13-.09-.22-.28-.27a4.26,4.26,0,0,0-.83-.07,7.18,7.18,0,0,1-.85-.07l-.36,0h-.38a1.51,1.51,0,0,1-.82-.2.58.58,0,0,1-.31-.51.74.74,0,0,1,.29-.63,1.28,1.28,0,0,1,.77-.21c.37,0,.94,0,1.71.07s1.23.07,1.53.07a1.31,1.31,0,0,1,1,.4,1.57,1.57,0,0,1,.4,1.15,5.56,5.56,0,0,1-.31,1.64,5.62,5.62,0,0,1-.86,1.67,3.46,3.46,0,0,1-1.61,1.14,6.49,6.49,0,0,1-2.3.39,6,6,0,0,1-2-.36,5.08,5.08,0,0,1-1.7-1,5.62,5.62,0,0,1-1.31-1.83,5.41,5.41,0,0,1-.47-2.14,7.9,7.9,0,0,1,.58-3.06,4.72,4.72,0,0,1,1.8-2.24,5,5,0,0,1,1.65-.59,9.47,9.47,0,0,1,2-.23,4.48,4.48,0,0,1,2.16.52,4.38,4.38,0,0,1,1.51,1.29,1.11,1.11,0,0,1,.21.58.75.75,0,0,1-.25.54.71.71,0,0,1-.5.25l-.25,0A1,1,0,0,1,62.13,18.67Z"/></g></g></svg>