<svg xmlns="http://www.w3.org/2000/svg" viewBox="0 0 94 43"><defs><style>.cls-1{fill:#752323;stroke:#3a0a0a;stroke-width:3px;}</style></defs><title>Asset 7</title><g id="Layer_2" data-name="Layer 2"><g id="Layer_1-2" data-name="Layer 1"><rect class="cls-1" x="1.5" y="1.5" width="91" height="40" rx="8.5"/><path d="M27.9,16.59a9.1,9.1,0,0,1,3.87.68A6.55,6.55,0,0,1,34,18.77a5.59,5.59,0,0,1,1,1.58,5.25,5.25,0,0,1,.38,2.12,5.15,5.15,0,0,1-.41,1.93A4.6,4.6,0,0,1,33.81,26a9,9,0,0,1-1.33,1.08,5.31,5.31,0,0,1-1.68.69,12.06,12.06,0,0,1-2.66.25,8.44,8.44,0,0,1-2.22-.27q-1-.29-1-1a.45.45,0,0,1,.24-.41,1,1,0,0,1,.54-.16.5.5,0,0,1,.21,0,22.58,22.58,0,0,0,.13-2.52c0-1,0-1.82-.07-2.47s-.12-1.31-.2-2c0-.09,0-.32-.09-.7a11.45,11.45,0,0,1-.05-1.17.72.72,0,0,1,.37-.63,1.34,1.34,0,0,1,.78-.27l.63,0A3.62,3.62,0,0,0,27.9,16.59Zm-.23,9.74a8.38,8.38,0,0,0,1.13.07,5.21,5.21,0,0,0,2.25-.49,4.41,4.41,0,0,0,1.71-1.38,3.4,3.4,0,0,0,.65-2.07A4.58,4.58,0,0,0,33,20.37,3.48,3.48,0,0,0,31.65,19a4.67,4.67,0,0,0-1.64-.6,12.07,12.07,0,0,0-2.34-.2c0,.29,0,.65,0,1.08,0,.15,0,.4,0,.76.07,1.39.11,2.51.11,3.37A18,18,0,0,1,27.67,26.33Zm17.63,1.4a3.21,3.21,0,0,1-.4-.67c-.11-.25-.22-.55-.34-.9l-.22-.54a3.45,3.45,0,0,0-.37-.77,13.41,13.41,0,0,1-1.86.16c-.26,0-.56,0-.88,0l-.7,0c-.6-.05-1.08-.07-1.44-.07a3.47,3.47,0,0,0-.38.61c-.1.21-.22.54-.38,1a7.19,7.19,0,0,1-.56,1.33.66.66,0,0,1-.63.27,1.63,1.63,0,0,1-.73-.16.54.54,0,0,1-.33-.49A9.78,9.78,0,0,1,36.53,26c.22-.51.52-1.2.92-2.05l.72-1.76c.4-1,.76-1.87,1.08-2.59S40,18,40.56,17a1,1,0,0,1,.36-.36,1,1,0,0,1,.56-.16,1.82,1.82,0,0,1,.49.05.43.43,0,0,1,.25.15,2.34,2.34,0,0,1,.27.39,12.75,12.75,0,0,1,1,2q.45,1,1.14,2.79l.38,1c.33.86.62,1.59.86,2.18a12.34,12.34,0,0,0,.83,1.58,1.66,1.66,0,0,1,.29.65.81.81,0,0,1-.27.66,1,1,0,0,1-.67.22A.92.92,0,0,1,45.3,27.73Zm-1.86-4.36c-.19-.4-.46-1.11-.82-2.12a15.2,15.2,0,0,0-1.12-2.57c-.23.57-.56,1.32-1,2.23a18.86,18.86,0,0,0-1,2.45A21.15,21.15,0,0,0,42,23.5,6.44,6.44,0,0,0,43.44,23.37Zm14.25,2.94a.53.53,0,0,1,.44.23A.86.86,0,0,1,58,27.77a1.62,1.62,0,0,1-.9.23,2.72,2.72,0,0,1-1.34-.29,2.51,2.51,0,0,1-.9-1.08,8.64,8.64,0,0,1-.3-.93,5.61,5.61,0,0,0-.34-1,1.56,1.56,0,0,0-.56-.67,1.85,1.85,0,0,0-1-.28h-.39c-.41,0-.72,0-.92,0a4.83,4.83,0,0,1-.68-.05q0,2.37,0,3.63a.63.63,0,0,1-.32.54,1.16,1.16,0,0,1-.7.22.87.87,0,0,1-.74-.36,2.89,2.89,0,0,1-.22-1.28c0-.19,0-.47,0-.83l0-.79c0-.73,0-1.52.09-2.36s.07-1.66.07-2.1a14.41,14.41,0,0,0-.11-1.5c0-.12,0-.31,0-.57a7,7,0,0,1,0-.74.6.6,0,0,1,.2-.43.89.89,0,0,1,.39-.26,19.46,19.46,0,0,1,2.92-.23,7.41,7.41,0,0,1,3.83.88,2.93,2.93,0,0,1,1.5,2.7,2.67,2.67,0,0,1-.29,1.14,2.55,2.55,0,0,1-.68.9,3.53,3.53,0,0,1-1.52.79l.4.36a1.7,1.7,0,0,1,.49.68l.23.72a9.51,9.51,0,0,0,.49,1.23.53.53,0,0,0,.46.32.73.73,0,0,0,.33,0A1,1,0,0,1,57.69,26.31Zm-7.14-4.12.75,0,.9,0,.85,0a3.06,3.06,0,0,0,1.15-.25,2.68,2.68,0,0,0,1-.71,1.54,1.54,0,0,0,.4-1,1.59,1.59,0,0,0-.83-1.49,5.31,5.31,0,0,0-2.57-.47,8.12,8.12,0,0,0-1.57.18c0,.43,0,.74,0,.93s0,.57,0,1l0,.52C50.57,21.38,50.55,21.81,50.55,22.19ZM69.47,27a.64.64,0,0,1,.27.24.67.67,0,0,1,.11.41.63.63,0,0,1-.27.54,1,1,0,0,1-.6.22,2.59,2.59,0,0,1-.9-.2,5.45,5.45,0,0,1-2-1.84,29.41,29.41,0,0,1-2.25-3.69c-.69.53-1.38,1-2.09,1.48,0,.25,0,.54,0,.88s0,.56,0,.72c0,.7,0,1.16,0,1.39a1,1,0,0,1-.2.59A.68.68,0,0,1,61,28a1.46,1.46,0,0,1-.83-.18.85.85,0,0,1-.31-.56,11.62,11.62,0,0,1-.14-1.73c0-.62.05-1.52.14-2.7s.15-2,.15-2.53c0-.22,0-.53,0-.94a5,5,0,0,0-.11-.9c0-.38-.07-.65-.07-.81a1.19,1.19,0,0,1,.25-.83,1.06,1.06,0,0,1,.78-.25,1,1,0,0,1,.65.23.83.83,0,0,1,.3.6c.06,1,.09,1.8.09,2.36,0,.3,0,.73-.07,1.29s0,.9-.07,1.05a18.52,18.52,0,0,0,2.39-2,27.14,27.14,0,0,0,2.56-2.57l.23-.27a2.52,2.52,0,0,1,.49-.52.87.87,0,0,1,.54-.15.89.89,0,0,1,.61.24.64.64,0,0,1,.29.52,1.78,1.78,0,0,1-.61,1.21c-1,1-2,2-3,2.88a34,34,0,0,0,2.07,3.43A7.17,7.17,0,0,0,69.47,27Z"/></g></g></svg>