<svg xmlns="http://www.w3.org/2000/svg" viewBox="0 0 94 43"><defs><style>.cls-1{fill:#6a38d5;stroke:#402777;stroke-width:3px;}</style></defs><title>Asset 11</title><g id="Layer_2" data-name="Layer 2"><g id="Layer_1-2" data-name="Layer 1"><rect class="cls-1" x="1.5" y="1.5" width="91" height="40" rx="8.5"/><path d="M14.79,16.59a9.17,9.17,0,0,1,3.87.68,6.55,6.55,0,0,1,2.18,1.5,5.59,5.59,0,0,1,1,1.58,5.43,5.43,0,0,1,.38,2.12,5,5,0,0,1-.42,1.93A4.45,4.45,0,0,1,20.7,26a9.06,9.06,0,0,1-1.34,1.08,5.15,5.15,0,0,1-1.67.69A12.22,12.22,0,0,1,15,28a8.42,8.42,0,0,1-2.21-.27q-1-.29-1-1a.47.47,0,0,1,.23-.41,1,1,0,0,1,.55-.16.56.56,0,0,1,.21,0,22.58,22.58,0,0,0,.13-2.52c0-1,0-1.82-.07-2.47s-.12-1.31-.2-2c0-.09,0-.32-.09-.7a11.46,11.46,0,0,1-.06-1.17.73.73,0,0,1,.38-.63,1.32,1.32,0,0,1,.78-.27l.62,0A3.74,3.74,0,0,0,14.79,16.59Zm-.23,9.74a8.26,8.26,0,0,0,1.13.07,5.27,5.27,0,0,0,2.25-.49,4.41,4.41,0,0,0,1.71-1.38,3.47,3.47,0,0,0,.65-2.07,4.72,4.72,0,0,0-.43-2.09A3.55,3.55,0,0,0,18.54,19a4.74,4.74,0,0,0-1.64-.6,12.07,12.07,0,0,0-2.34-.2c0,.29,0,.65,0,1.08,0,.15,0,.4,0,.76.07,1.39.11,2.51.11,3.37A18,18,0,0,1,14.56,26.33Zm18.67,0a.52.52,0,0,1,.43.23.86.86,0,0,1-.18,1.23,1.62,1.62,0,0,1-.9.23,2.72,2.72,0,0,1-1.34-.29,2.43,2.43,0,0,1-.89-1.08A6.54,6.54,0,0,1,30,25.7a5.61,5.61,0,0,0-.34-1,1.56,1.56,0,0,0-.56-.67,1.83,1.83,0,0,0-1-.28h-.4c-.41,0-.71,0-.92,0a4.83,4.83,0,0,1-.68-.05q0,2.37,0,3.63a.63.63,0,0,1-.32.54,1.16,1.16,0,0,1-.7.22.87.87,0,0,1-.74-.36,3,3,0,0,1-.22-1.28c0-.19,0-.47,0-.83l0-.79c0-.73,0-1.52.09-2.36s.07-1.66.07-2.1a14.41,14.41,0,0,0-.11-1.5c0-.12,0-.31-.05-.57a7,7,0,0,1,0-.74.6.6,0,0,1,.2-.43.89.89,0,0,1,.39-.26,19.46,19.46,0,0,1,2.92-.23,7.41,7.41,0,0,1,3.83.88,2.93,2.93,0,0,1,1.5,2.7,2.67,2.67,0,0,1-.29,1.14,2.55,2.55,0,0,1-.68.9,3.48,3.48,0,0,1-1.52.79l.4.36a1.7,1.7,0,0,1,.49.68l.23.72a11.27,11.27,0,0,0,.49,1.23.53.53,0,0,0,.47.32.7.7,0,0,0,.32,0A1,1,0,0,1,33.23,26.31Zm-7.15-4.12.76,0,.9,0,.84,0a3.06,3.06,0,0,0,1.15-.25,2.68,2.68,0,0,0,1-.71,1.54,1.54,0,0,0,.4-1,1.59,1.59,0,0,0-.83-1.49,5.31,5.31,0,0,0-2.57-.47,8.12,8.12,0,0,0-1.57.18c0,.43,0,.74,0,.93s0,.57,0,1l0,.52C26.1,21.38,26.08,21.81,26.08,22.19Zm17.43,5.54a3.21,3.21,0,0,1-.4-.67c-.11-.25-.22-.55-.34-.9l-.22-.54a3.45,3.45,0,0,0-.38-.77,13.16,13.16,0,0,1-1.85.16c-.27,0-.56,0-.88,0l-.7,0c-.61-.05-1.09-.07-1.45-.07a3.42,3.42,0,0,0-.37.61c-.1.21-.22.54-.38,1A8,8,0,0,1,36,27.8a.68.68,0,0,1-.63.27,1.7,1.7,0,0,1-.74-.16.55.55,0,0,1-.32-.49A8.71,8.71,0,0,1,34.74,26c.22-.51.52-1.2.92-2.05l.72-1.76c.39-1,.75-1.87,1.08-2.59S38.23,18,38.77,17a.89.89,0,0,1,.36-.36,1,1,0,0,1,.56-.16,1.82,1.82,0,0,1,.49.05.46.46,0,0,1,.25.15,2.34,2.34,0,0,1,.27.39,14.77,14.77,0,0,1,1,2q.45,1,1.14,2.79l.37,1c.34.86.63,1.59.87,2.18A12.34,12.34,0,0,0,45,26.56a1.58,1.58,0,0,1,.28.65.81.81,0,0,1-.27.66,1,1,0,0,1-.66.22A.91.91,0,0,1,43.51,27.73Zm-1.86-4.36c-.19-.4-.47-1.11-.83-2.12a14.5,14.5,0,0,0-1.11-2.57c-.23.57-.57,1.32-1,2.23a20.14,20.14,0,0,0-1,2.45,21.46,21.46,0,0,0,2.49.14A6.5,6.5,0,0,0,41.65,23.37Zm13.26-4-.57-.41a3.51,3.51,0,0,0-.94-.51,3,3,0,0,0-.95-.16,5.51,5.51,0,0,0-1.48.2,3.46,3.46,0,0,0-1.21.56,4.28,4.28,0,0,0-1.47,3.69A3.69,3.69,0,0,0,52,26.45a4.11,4.11,0,0,0,1.56-.27,3,3,0,0,0,1.07-.74,2.25,2.25,0,0,0,.43-.91,5.8,5.8,0,0,0,.11-1.14c0-.12-.1-.2-.29-.25a3.54,3.54,0,0,0-.83-.07l-.95,0-.83,0a1.52,1.52,0,0,1-.83-.2.59.59,0,0,1-.3-.52c0-.55.35-.83,1.06-.83s1.18,0,1.82.06l1.62,0a1.3,1.3,0,0,1,1,.4,1.53,1.53,0,0,1,.4,1.15,5.31,5.31,0,0,1-.31,1.66,5.84,5.84,0,0,1-.84,1.65,3.35,3.35,0,0,1-1.57,1.1A7,7,0,0,1,52,28a6.49,6.49,0,0,1-2.09-.34,4.61,4.61,0,0,1-1.67-1,5.8,5.8,0,0,1-1.32-1.83,5.41,5.41,0,0,1-.47-2.14,7.2,7.2,0,0,1,.67-3A5.23,5.23,0,0,1,49,17.43a4.87,4.87,0,0,1,1.57-.59,8.34,8.34,0,0,1,1.87-.23,4,4,0,0,1,3.51,1.49,1.11,1.11,0,0,1,.21.58.87.87,0,0,1-.75.79.81.81,0,0,1-.25,0A.5.5,0,0,1,54.91,19.34ZM64.71,28a7.87,7.87,0,0,1-2.18-.29,4.19,4.19,0,0,1-1.62-.88,5.87,5.87,0,0,1-1.62-2.23,9.2,9.2,0,0,1-.45-3.12,2.55,2.55,0,0,1,.11-.74c.08-.24.19-.5.32-.79,0-.08.09-.21.17-.39a2.81,2.81,0,0,0,.16-.53,3.68,3.68,0,0,1,1.15-1.2,7.52,7.52,0,0,1,1.78-.92,4.89,4.89,0,0,1,1.68-.36c2.31,0,4,.79,5,2.38A5.24,5.24,0,0,1,70,21.74a7.09,7.09,0,0,1-.67,3.18,5.1,5.1,0,0,1-1.8,2.13,9,9,0,0,1-1.47.7A4.14,4.14,0,0,1,64.71,28Zm-4-5.19a2.8,2.8,0,0,0,.42,1.64,7.63,7.63,0,0,0,1.4,1.39l1,.36a2.08,2.08,0,0,0,.63.09,4.22,4.22,0,0,0,2.07-.49,3.49,3.49,0,0,0,1.39-1.33,3.66,3.66,0,0,0,.5-1.89,6,6,0,0,0-.31-2.16A3.38,3.38,0,0,0,66.73,19a2.67,2.67,0,0,0-1.07-.51,5.81,5.81,0,0,0-1.35-.16,3.2,3.2,0,0,0-2.68,1.23A5.12,5.12,0,0,0,60.71,22.83Zm19-4.95A1.68,1.68,0,0,1,80,17a.81.81,0,0,1,.74-.39,1.57,1.57,0,0,1,.73.16.56.56,0,0,1,.33.54c0,.49,0,1.18-.08,2.07s-.07,1.51-.07,1.93c0,.66,0,1.54.07,2.64s.08,1.83.08,2.32,0,.69,0,.89a.8.8,0,0,1-.32.57,1.45,1.45,0,0,1-1,.27,1.35,1.35,0,0,1-.59-.11.77.77,0,0,1-.33-.27c-.56-.68-1.38-1.84-2.46-3.49-1.21-1.83-2.21-3.24-3-4.21a31.09,31.09,0,0,1,.14,3.17c0,.55,0,1.27,0,2.16s0,1.45-.07,1.73a1.49,1.49,0,0,1-.32.81,1,1,0,0,1-.76.27.78.78,0,0,1-.59-.22,1.55,1.55,0,0,1-.22-.79q0-.74.09-2.22,0-.22.06-.81t0-1q0-1.25-.12-2.85c-.08-1.17-.11-2-.11-2.61a.77.77,0,0,1,.31-.66,1.18,1.18,0,0,1,.73-.24,1.87,1.87,0,0,1,.76.18q1.55,1.95,4.19,5.8l1.69,2.59c0-.19,0-.46,0-.81q0-.91,0-2T79.84,21C79.78,19.8,79.75,18.77,79.75,17.88Z"/></g></g></svg>