<svg xmlns="http://www.w3.org/2000/svg" viewBox="0 0 278.47 140.67"><defs><style>.cls-1{fill:#ff0;stroke:#c0c011;stroke-width:9.35px;}</style></defs><title>Asset 1</title><g id="Layer_2" data-name="Layer 2"><g id="Layer_1-2" data-name="Layer 1"><path class="cls-1" d="M29.81,4.67H248.66c13.88,0,25.14,12.5,25.14,27.91v75.51c0,15.41-11.26,27.91-25.14,27.91H29.81c-13.88,0-25.14-12.5-25.14-27.91V32.58C4.67,17.17,15.93,4.67,29.81,4.67Z"/><path d="M46.76,83.64a1.59,1.59,0,0,1,1.49.89,3.34,3.34,0,0,1,.53,1.83,3.15,3.15,0,0,1-.37,1.77,3.82,3.82,0,0,1-1.28,1A22.23,22.23,0,0,1,41.59,91a33.85,33.85,0,0,1-7.08.71c-3.16,0-5.48-.6-7-1.78a7.41,7.41,0,0,1-2.72-4.25,38.07,38.07,0,0,1-.47-6.62c0-2.92.1-5.77.32-8.57s.58-6.44,1.11-10.81a5.78,5.78,0,0,1,2-4.08,5.69,5.69,0,0,1,3.62-1.3q1.65,0,5.37-.12l4.63-.06a33.65,33.65,0,0,1,4.16.18,7.44,7.44,0,0,1,2.34.83,1.5,1.5,0,0,1,.8,1.47A4.12,4.12,0,0,1,48,58.94a2.32,2.32,0,0,1-2.13,1.12q-1.65,0-4.74-.24c-2-.15-3.6-.23-4.63-.23a20.55,20.55,0,0,0-2.61.17,6.62,6.62,0,0,0-2.12.42,1.24,1.24,0,0,0-.75,1,81.79,81.79,0,0,0-.75,9,18.07,18.07,0,0,0,2.4.17c1,0,2.06-.06,3.19-.17L38,69.93a46.69,46.69,0,0,1,4.84-.3,2.74,2.74,0,0,1,1.76.48,1.54,1.54,0,0,1,.64,1.3,3,3,0,0,1-.64,2,3.85,3.85,0,0,1-2.13,1.06,35.76,35.76,0,0,1-4.63.65c-1.81.16-3.59.24-5.33.24-.6,0-1.43,0-2.5-.12-.1,2.4-.16,4.63-.16,6.68q0,4.18,5,4.19a20,20,0,0,0,4.41-.41c1.18-.28,2.52-.67,4.05-1.18A9.57,9.57,0,0,1,46.76,83.64ZM57,54.15a3,3,0,0,1,1.81.59,2.73,2.73,0,0,1,1,2.07,91.69,91.69,0,0,1,.8,9.34q.21,4.6.21,10.46c0,1.65-.12,4.67-.37,9,1.56.16,2.77.24,3.62.24.6,0,2-.1,4.1-.3a20.71,20.71,0,0,1,3.24-.3A10,10,0,0,1,76,86.42a2.41,2.41,0,0,1,1.12,2.18,3.52,3.52,0,0,1-.69,2.13,1.87,1.87,0,0,1-1.55,1,13.33,13.33,0,0,1-2-.24A29,29,0,0,0,68,91a16,16,0,0,0-1.71.11c-.6,0-1,.06-1.33.06a18.22,18.22,0,0,1-2.55.18,34.78,34.78,0,0,1-4.69-.29,4.54,4.54,0,0,1-2.13-.89,2.81,2.81,0,0,1-1.06-2.36c0-.6.07-2.11.21-4.56.25-4,.38-7.15.38-9.27,0-1.66-.08-3.39-.22-5.2s-.23-3-.26-3.43q-.48-5-.48-8.27a3.27,3.27,0,0,1,.64-2.25A2.93,2.93,0,0,1,57,54.15ZM105.4,87.89a3.26,3.26,0,0,1-.27,1.78,3.65,3.65,0,0,1-1.27,1,9.75,9.75,0,0,1-3.41,1,43.93,43.93,0,0,1-5,.23H91.88q-4.74,0-7-1.77A7.79,7.79,0,0,1,82,85.77a34.16,34.16,0,0,1-.69-6.56q-.06-1.36-.06-4,0-5.79.91-15.48a5.36,5.36,0,0,1,5.48-5.38c1.1,0,2.89,0,5.38-.12l4.68-.06a33.35,33.35,0,0,1,4.15.18,8.1,8.1,0,0,1,2.4.83,1.59,1.59,0,0,1,.85,1.47,4.37,4.37,0,0,1-.69,2.31,2.32,2.32,0,0,1-2.13,1.12q-1.65,0-4.74-.24c-2.06-.15-3.62-.23-4.68-.23a18.75,18.75,0,0,0-2.61.17,6.77,6.77,0,0,0-2.13.42,1.11,1.11,0,0,0-.69,1,80.29,80.29,0,0,0-.48,9,18.23,18.23,0,0,0,2.45.17c.81,0,1.93-.08,3.35-.23L94.06,70c.53,0,1.14-.06,1.81-.06.39,0,1,0,1.87.12l1.65.06c1.63,0,2.44.65,2.44,2a2.88,2.88,0,0,1-.58,1.89A3.72,3.72,0,0,1,99.17,75a35.93,35.93,0,0,1-6.55.42H89.38c-.68,0-1.51,0-2.5-.12,0,.71-.06,1.73-.06,3.07q0,2.59.06,3.66Q87,86.18,92,86.18c1.13,0,2.34,0,3.62.12l2,.06a7.44,7.44,0,0,0,2.29-.3c.6-.23,1.19-.43,1.75-.59a5.32,5.32,0,0,1,1.65-.29,1.7,1.7,0,0,1,1.55.88A3.34,3.34,0,0,1,105.4,87.89ZM137,59.94a11.18,11.18,0,0,1,1.11,1.72,2.69,2.69,0,0,1,.32,1.24,2.66,2.66,0,0,1-.85,1.65,2.18,2.18,0,0,1-1.6,1,3.46,3.46,0,0,1-1.7-.36A2.68,2.68,0,0,1,133.17,64a15.25,15.25,0,0,0-2.35-3.13,4.62,4.62,0,0,0-3.56-1.42,12.94,12.94,0,0,0-4.9,1.12,9.51,9.51,0,0,0-4,2.78q-2.88,3.9-2.88,10.34a13.84,13.84,0,0,0,2.88,8.81A9.41,9.41,0,0,0,126,86.3a14.83,14.83,0,0,0,4.63-.83,8.32,8.32,0,0,0,4.05-2.84h-.05a3,3,0,0,1,2.39-1.12,2.17,2.17,0,0,1,1.6.83,2.42,2.42,0,0,1,.8,1.65,4.44,4.44,0,0,1-.27,1.6,5,5,0,0,1-.85,1.48,11.54,11.54,0,0,1-5.59,3.72,26.76,26.76,0,0,1-7.67,1,13.63,13.63,0,0,1-6.86-1.89,17.47,17.47,0,0,1-5.38-4.78,22.84,22.84,0,0,1-2.08-4.91,19.84,19.84,0,0,1-1-5.26,33.79,33.79,0,0,1,1.38-9.75,17.42,17.42,0,0,1,4.26-7.44,11.5,11.5,0,0,1,5.38-2.84,24.91,24.91,0,0,1,6.44-1,9.43,9.43,0,0,1,4,.77,8.85,8.85,0,0,1,2.93,1.95A28,28,0,0,1,137,59.94Zm5-2.72c0-1.69,1.11-2.54,3.35-2.54,1,0,2.79,0,5.48.12,3,.16,5.24.24,6.76.24,1.25,0,2.75-.08,4.53-.24,1.21-.08,2-.12,2.29-.12a11.72,11.72,0,0,1,4.95,1.18,3.43,3.43,0,0,1,1,.71,2,2,0,0,1,.37,1.36,3.51,3.51,0,0,1-.75,2.25,2.27,2.27,0,0,1-1.81.88,22.88,22.88,0,0,1-3.4-.35,16.86,16.86,0,0,0-3.46-.41q-1.44,0-2.19.06c-.1,1.3-.16,4.41-.16,9.33q0,8.81.48,17.85l.11,1.71a2.18,2.18,0,0,1-2.5,2.43,3,3,0,0,1-2.66-1,5.92,5.92,0,0,1-.7-3.19c0-2.8-.07-6.28-.21-10.46q-.21-5.2-.21-7.39c0-1,.11-4,.32-9l-6.23.06a10.2,10.2,0,0,1-4.15-.59C142.32,59.63,141.93,58.68,141.93,57.22ZM192.26,76a66.29,66.29,0,0,0,3.73,6.2c1.28,1.77,2.94,4,5,6.56a1.37,1.37,0,0,1,.37,1,1.68,1.68,0,0,1-.85,1.41,3.18,3.18,0,0,1-2,.6A5.87,5.87,0,0,1,195,90.2a13.08,13.08,0,0,1-3-3.61c-.89-1.49-1.91-3.44-3.09-5.85-.92-1.85-1.47-2.93-1.65-3.25a19.08,19.08,0,0,1-6.49,1.19c0,1.33.11,3.15.32,5.43s.32,4.08.32,5.14a2.15,2.15,0,0,1-1,1.78,3.3,3.3,0,0,1-2.08.71,2.36,2.36,0,0,1-2.13-1.25,12.51,12.51,0,0,1-1-3.95C175.08,85,175,83.17,175,81s.13-4.79.38-7.62c.21-3.16.32-5.48.32-7,0-1.22-.11-2.85-.32-4.9,0-.36-.09-1-.16-1.83s-.11-1.66-.11-2.37a2.08,2.08,0,0,1,.53-1.42,3.07,3.07,0,0,1,1.23-.88,47.15,47.15,0,0,1,8.41-.77,21.23,21.23,0,0,1,11.55,2.89A9.72,9.72,0,0,1,201.42,66a8.81,8.81,0,0,1-.75,3.55,7.84,7.84,0,0,1-1.91,2.77A17.83,17.83,0,0,1,192.26,76Zm3.57-10.23a5.33,5.33,0,0,0-2.72-4.61q-2.72-1.83-7.72-1.83a16.91,16.91,0,0,0-4.41.59l.05,3c0,1.73-.05,3.42-.16,5.08s-.16,3.43-.16,5.32a9.63,9.63,0,0,1,1.92-.3c.67-.08,1.11-.14,1.33-.18a21.69,21.69,0,0,0,3.62-.59c1.59-.55,2.91-1,3.94-1.47a10.81,10.81,0,0,0,2.92-1.95A4.08,4.08,0,0,0,195.83,65.79Zm19.88-6.73c-.14,3.38-.21,5.81-.21,7.26,0,3.2.09,6.72.26,10.58q.23,6.85.22,10.17c1.35-.2,2.16-.3,2.45-.3a2.62,2.62,0,0,1,1.86.65,2.65,2.65,0,0,1,.69,2,1.59,1.59,0,0,1-.64,1.36,5.17,5.17,0,0,1-2.23.71,42.31,42.31,0,0,1-4.53.18,37.42,37.42,0,0,1-5-.24,4,4,0,0,1-2.29-.89,3,3,0,0,1-.64-2.06,1.46,1.46,0,0,1,.59-1.36,3.16,3.16,0,0,1,1.65-.36l1.12.06,1.75.12-.26-7c-.22-3.79-.32-7.25-.32-10.41q0-2.53.16-7l.1-3.25q-1.8.12-2.82.12a2.11,2.11,0,0,1-1.59-.47,3.44,3.44,0,0,1-.38-2c0-1.11.68-1.82,2-2.13a30.26,30.26,0,0,1,6.28-.47,35.9,35.9,0,0,1,4.84.23c1.1.16,1.65.51,1.65,1.07a3.35,3.35,0,0,1-.8,2.66,5,5,0,0,1-2.92.59Zm37.27.88a11.18,11.18,0,0,1,1.11,1.72,2.69,2.69,0,0,1,.32,1.24,2.66,2.66,0,0,1-.85,1.65,2.18,2.18,0,0,1-1.59,1,3.5,3.5,0,0,1-1.71-.36A2.74,2.74,0,0,1,249.2,64a15.58,15.58,0,0,0-2.34-3.13,4.66,4.66,0,0,0-3.57-1.42,12.94,12.94,0,0,0-4.9,1.12,9.51,9.51,0,0,0-4,2.78q-2.88,3.9-2.88,10.34a13.84,13.84,0,0,0,2.88,8.81,9.42,9.42,0,0,0,7.66,3.78,14.94,14.94,0,0,0,4.64-.83,8.33,8.33,0,0,0,4-2.84h-.05a3,3,0,0,1,2.39-1.12,2.17,2.17,0,0,1,1.6.83,2.42,2.42,0,0,1,.8,1.65,4.44,4.44,0,0,1-.27,1.6,5,5,0,0,1-.85,1.48,11.49,11.49,0,0,1-5.59,3.72,26.69,26.69,0,0,1-7.66,1,13.64,13.64,0,0,1-6.87-1.89,17.47,17.47,0,0,1-5.38-4.78,22.39,22.39,0,0,1-2.07-4.91,19.52,19.52,0,0,1-1-5.26,33.79,33.79,0,0,1,1.38-9.75,17.42,17.42,0,0,1,4.26-7.44,11.55,11.55,0,0,1,5.38-2.84,25,25,0,0,1,6.44-1,9.43,9.43,0,0,1,4,.77,8.74,8.74,0,0,1,2.93,1.95A27,27,0,0,1,253,59.94Z"/></g></g></svg>