<svg xmlns="http://www.w3.org/2000/svg" viewBox="0 0 94 43"><defs><style>.cls-1{fill:#933;stroke:#8e1818;stroke-width:3px;}</style></defs><title>Asset 3</title><g id="Layer_2" data-name="Layer 2"><g id="Layer_1-2" data-name="Layer 1"><rect class="cls-1" x="1.5" y="1.5" width="91" height="40" rx="8.5"/><path d="M10.24,27.35a.73.73,0,0,1-.32.47A1.24,1.24,0,0,1,9.2,28a.88.88,0,0,1-.63-.22.7.7,0,0,1-.23-.45,18.05,18.05,0,0,0,.1-2.26c0-.6,0-1.53-.1-2.78s-.13-2.22-.13-3.13c0-.49,0-1,.07-1.51a.81.81,0,0,1,.29-.54,1.48,1.48,0,0,1,.83-.36,41,41,0,0,1,4.19-.18h.58a3.65,3.65,0,0,1,1.26.23.84.84,0,0,1,.63.81.91.91,0,0,1-.18.6.85.85,0,0,1-.67.21l-.54,0-.43-.06a7.4,7.4,0,0,0-1.06-.1,13.08,13.08,0,0,0-3.15.28c0,.4,0,1,0,1.93l0,1.15c.63,0,1.18,0,1.68-.07l.84-.11c.63-.07,1-.11,1.24-.11a1.25,1.25,0,0,1,.72.2.61.61,0,0,1,.31.58q0,.9-1.26.9a4.52,4.52,0,0,0-.54,0l-.4,0a9.12,9.12,0,0,1-1,.07,14.1,14.1,0,0,0-1.41.06c0,.44,0,.91.06,1.4,0,.16,0,.4,0,.72s0,.62,0,.88a6.22,6.22,0,0,1,0,.63A2.52,2.52,0,0,1,10.24,27.35Zm10.1-9.29q-.06,1.15-.06,2.22c0,.73,0,1.8.15,3.22,0,.22,0,.65.07,1.31s.05,1.25.05,1.79l.38-.06.32,0a.93.93,0,0,1,.63.19.77.77,0,0,1,.24.62.46.46,0,0,1-.22.41,1.81,1.81,0,0,1-.75.22c-.35,0-.86.05-1.53.05a13.93,13.93,0,0,1-1.68-.07,1.45,1.45,0,0,1-.77-.27A.85.85,0,0,1,17,27a.45.45,0,0,1,.2-.42,1.22,1.22,0,0,1,.56-.1h.38l.59,0-.09-2.12c-.07-1.16-.11-2.21-.11-3.17q0-.78.06-2.13l0-1c-.41,0-.72,0-.95,0a.78.78,0,0,1-.54-.14,1,1,0,0,1-.13-.6c0-.33.23-.55.69-.65a12,12,0,0,1,2.12-.14,13.29,13.29,0,0,1,1.64.07c.37.05.56.16.56.33a1,1,0,0,1-.27.81,1.87,1.87,0,0,1-1,.18Zm12.07,1.61a4,4,0,0,1-.52-.42,8.45,8.45,0,0,0-1.1-.74,2.09,2.09,0,0,0-1-.25,6.66,6.66,0,0,0-1.59.2,3.87,3.87,0,0,0-1.28.56,2.74,2.74,0,0,0-1,1.47,7.83,7.83,0,0,0-.27,2.22,3.86,3.86,0,0,0,.86,2.46,3.48,3.48,0,0,0,1.26.92,3.78,3.78,0,0,0,1.51.33,3.27,3.27,0,0,0,2.6-1,3,3,0,0,0,.61-1.89c0-.13-.1-.22-.29-.27a4.19,4.19,0,0,0-.83-.07,6.9,6.9,0,0,1-.84-.07l-.36,0h-.38a1.52,1.52,0,0,1-.83-.2.6.6,0,0,1-.31-.51.74.74,0,0,1,.29-.63,1.29,1.29,0,0,1,.78-.21c.37,0,.94,0,1.71.07s1.23.07,1.53.07a1.29,1.29,0,0,1,1,.4,1.53,1.53,0,0,1,.4,1.15A5.25,5.25,0,0,1,34,24.87a5.62,5.62,0,0,1-.86,1.67,3.43,3.43,0,0,1-1.6,1.14,6.59,6.59,0,0,1-2.31.39,6,6,0,0,1-2-.36,5,5,0,0,1-1.69-1,5.8,5.8,0,0,1-1.32-1.83,5.4,5.4,0,0,1-.46-2.14,8.09,8.09,0,0,1,.57-3.06,4.84,4.84,0,0,1,1.8-2.24,5,5,0,0,1,1.66-.59,9.38,9.38,0,0,1,2-.23,4.48,4.48,0,0,1,2.16.52,4.29,4.29,0,0,1,1.51,1.29,1.06,1.06,0,0,1,.22.58.79.79,0,0,1-.25.54.73.73,0,0,1-.51.25l-.25,0A1,1,0,0,1,32.41,19.67Zm12.11,1.89c0-.2,0-.48,0-.87V20a8.86,8.86,0,0,0,0-1c0-.19,0-.69,0-1.49a.87.87,0,0,1,.25-.67,1,1,0,0,1,.72-.25.93.93,0,0,1,.77.25,1.32,1.32,0,0,1,.2.83v.68l0,2c0,.39,0,1,0,1.73v1.48c0,.23,0,.54,0,.95s0,.79,0,1.39,0,1,0,1.24a1.09,1.09,0,0,1-.19.63.57.57,0,0,1-.51.29c-.84,0-1.26-.28-1.26-.85,0-.31,0-.66,0-1s0-.7,0-1.26q0-.6,0-1.71c-.57.05-1.54.07-2.92.07h-2a5.78,5.78,0,0,1-1.05-.09l0,2.07c0,.13,0,.49.09,1.06a6.7,6.7,0,0,1,.09,1,.67.67,0,0,1-.32.52,1,1,0,0,1-.58.24,1.07,1.07,0,0,1-.88-.31,1.71,1.71,0,0,1-.23-1l0-1.42c0-.17,0-.41,0-.71s0-1.05,0-1.81,0-1.2,0-1.52,0-1.12,0-2,0-1.38,0-1.76a.9.9,0,0,1,.29-.78,1.13,1.13,0,0,1,.65-.19c.67,0,1,.22,1,.66,0,.79,0,1.55-.06,2.27,0,.91,0,1.58,0,2a6.22,6.22,0,0,0,1.09.16c.39,0,.93,0,1.62,0A23.08,23.08,0,0,0,44.52,21.56Zm3.43-4c0-.52.37-.78,1.13-.78.32,0,.94,0,1.85,0s1.77.07,2.29.07.93,0,1.53-.07l.77,0a4.54,4.54,0,0,1,1.68.36,1,1,0,0,1,.32.22.53.53,0,0,1,.13.41,1.06,1.06,0,0,1-.25.69.83.83,0,0,1-.62.27,9.44,9.44,0,0,1-1.15-.11,5.88,5.88,0,0,0-1.17-.13l-.74,0c0,.4,0,1.34,0,2.84,0,1.79,0,3.6.16,5.44l0,.52c0,.49-.28.74-.85.74a1.07,1.07,0,0,1-.9-.31,1.69,1.69,0,0,1-.23-1c0-.85,0-1.91-.07-3.18,0-1.06-.08-1.81-.08-2.25s0-1.22.11-2.76l-2.1,0a3.81,3.81,0,0,1-1.41-.18A.87.87,0,0,1,48,17.51ZM60.18,28.05a.83.83,0,0,1-.76-.32,1.79,1.79,0,0,1-.2-.92l0-2.34,0-.36q-.09-1.71-.09-2.82l.07-2.15,0-1.08a5.74,5.74,0,0,1,0-.82.71.71,0,0,1,.23-.47.91.91,0,0,1,.63-.18,1,1,0,0,1,.78.27,1.33,1.33,0,0,1,.23.88l0,.38c0,1-.07,1.68-.07,2.18s0,1.17,0,1.9,0,1.23.05,1.53c.06,1.29.09,2.39.09,3.32a.86.86,0,0,1-1,1ZM71.33,17.88a1.68,1.68,0,0,1,.24-.9.81.81,0,0,1,.73-.39,1.58,1.58,0,0,1,.74.16.56.56,0,0,1,.33.54c0,.49,0,1.18-.08,2.07s-.07,1.51-.07,1.93c0,.66,0,1.54.07,2.64s.08,1.83.08,2.32,0,.69,0,.89a.78.78,0,0,1-.33.57,1.4,1.4,0,0,1-1,.27,1.32,1.32,0,0,1-.59-.11.77.77,0,0,1-.33-.27c-.56-.68-1.38-1.84-2.46-3.49-1.22-1.83-2.21-3.24-3-4.21a31.09,31.09,0,0,1,.14,3.17c0,.55,0,1.27,0,2.16s0,1.45-.07,1.73a1.57,1.57,0,0,1-.32.81,1,1,0,0,1-.76.27.78.78,0,0,1-.59-.22,1.55,1.55,0,0,1-.22-.79q0-.74.09-2.22,0-.22.06-.81t0-1q0-1.25-.12-2.85c-.08-1.17-.11-2-.11-2.61a.79.79,0,0,1,.3-.66,1.23,1.23,0,0,1,.74-.24,1.87,1.87,0,0,1,.76.18q1.55,1.95,4.19,5.8l1.69,2.59c0-.19,0-.46,0-.81q0-.91,0-2T71.42,21C71.36,19.8,71.33,18.77,71.33,17.88Zm12.73,1.46-.58-.41a3.37,3.37,0,0,0-.94-.51,3,3,0,0,0-1-.16,5.51,5.51,0,0,0-1.48.2,3.41,3.41,0,0,0-1.2.56,4.26,4.26,0,0,0-1.48,3.69,3.72,3.72,0,0,0,.54,2,3.77,3.77,0,0,0,3.13,1.74,4.16,4.16,0,0,0,1.57-.27,2.91,2.91,0,0,0,1.06-.74,2.12,2.12,0,0,0,.43-.91,5.13,5.13,0,0,0,.11-1.14c0-.12-.09-.2-.29-.25a3.45,3.45,0,0,0-.82-.07l-1,0-.83,0a1.51,1.51,0,0,1-.82-.2.58.58,0,0,1-.31-.52c0-.55.35-.83,1.06-.83s1.18,0,1.82.06l1.62,0a1.31,1.31,0,0,1,1,.4,1.57,1.57,0,0,1,.39,1.15,5.57,5.57,0,0,1-.3,1.66A6.13,6.13,0,0,1,85,26.54a3.32,3.32,0,0,1-1.56,1.1A7,7,0,0,1,81.1,28,6.47,6.47,0,0,1,79,27.66a4.66,4.66,0,0,1-1.68-1A5.62,5.62,0,0,1,76,24.87a5.41,5.41,0,0,1-.47-2.14,7,7,0,0,1,.67-3,5.23,5.23,0,0,1,1.89-2.27,4.89,4.89,0,0,1,1.56-.59,8.41,8.41,0,0,1,1.87-.23,4,4,0,0,1,3.51,1.49,1.06,1.06,0,0,1,.22.58.75.75,0,0,1-.25.54.77.77,0,0,1-.51.25.85.85,0,0,1-.25,0A.46.46,0,0,1,84.06,19.34Z"/></g></g></svg>