<svg xmlns="http://www.w3.org/2000/svg" viewBox="0 0 94 43"><defs><style>.cls-1{fill:#66f;stroke:#2c2cf9;stroke-width:3px;}</style></defs><title>Asset 2</title><g id="Layer_2" data-name="Layer 2"><g id="Layer_1-2" data-name="Layer 1"><rect class="cls-1" x="1.5" y="1.5" width="91" height="40" rx="8.5"/><path d="M20.4,27.35a.73.73,0,0,1-.32.47,1.24,1.24,0,0,1-.72.18.88.88,0,0,1-.63-.22.7.7,0,0,1-.23-.45,18.05,18.05,0,0,0,.1-2.26c0-.6,0-1.53-.1-2.78s-.13-2.22-.13-3.13c0-.49,0-1,.07-1.51a.81.81,0,0,1,.29-.54,1.48,1.48,0,0,1,.83-.36,41,41,0,0,1,4.19-.18h.58a3.65,3.65,0,0,1,1.26.23.84.84,0,0,1,.63.81.91.91,0,0,1-.18.6.85.85,0,0,1-.67.21l-.54,0-.43-.06a7.4,7.4,0,0,0-1.06-.1,13.08,13.08,0,0,0-3.15.28c0,.4,0,1,0,1.93l0,1.15c.63,0,1.18,0,1.68-.07l.84-.11c.63-.07,1-.11,1.24-.11a1.25,1.25,0,0,1,.72.2.61.61,0,0,1,.31.58q0,.9-1.26.9a4.52,4.52,0,0,0-.54,0l-.4,0a9.12,9.12,0,0,1-1,.07,14.1,14.1,0,0,0-1.41.06c0,.44,0,.91.06,1.4,0,.16,0,.4,0,.72s0,.62,0,.88a6.22,6.22,0,0,1,0,.63A2.52,2.52,0,0,1,20.4,27.35Zm8.12-10.78a1.09,1.09,0,0,1,.61.18.82.82,0,0,1,.34.63,27.53,27.53,0,0,1,.27,2.84c.05.94.07,2,.07,3.19,0,.5,0,1.42-.12,2.75.52.05.93.08,1.22.08s.67,0,1.39-.09a7.82,7.82,0,0,1,1.09-.09,3.32,3.32,0,0,1,.8.09,2.75,2.75,0,0,1,.73.25.69.69,0,0,1,.38.66,1,1,0,0,1-.23.65.65.65,0,0,1-.52.29,4.63,4.63,0,0,1-.69-.07,10.19,10.19,0,0,0-1.62-.13,4,4,0,0,0-.57,0l-.45,0a8.46,8.46,0,0,1-.87.05,12.49,12.49,0,0,1-1.58-.09,1.52,1.52,0,0,1-.72-.27.83.83,0,0,1-.36-.72c0-.18,0-.64.07-1.39.08-1.23.13-2.17.13-2.82s0-1-.08-1.59-.07-.9-.09-1c-.1-1-.16-1.86-.16-2.52a.9.9,0,0,1,.22-.68A1,1,0,0,1,28.52,16.57Zm17,.86a1.82,1.82,0,0,1-.56,1q-.66.75-3.47,4.64c0,1.55.07,2.61.14,3.19,0,.36.06.62.06.77a1.15,1.15,0,0,1-.22.81,1,1,0,0,1-.7.2,1.29,1.29,0,0,1-.72-.22.66.66,0,0,1-.33-.55c0-.88,0-2.16-.05-3.86a1,1,0,0,0-.14-.36,2.63,2.63,0,0,1-.18-.32c-.26-.44-.57-.94-1-1.48a8.53,8.53,0,0,0-1-1.24,11.66,11.66,0,0,1-1.24-1.42,2.08,2.08,0,0,1-.45-.92A.66.66,0,0,1,36,17a1.37,1.37,0,0,1,.77-.24,1.16,1.16,0,0,1,.49.13,1,1,0,0,1,.43.36c.71,1.06,1.34,1.93,1.89,2.63l.85,1.1a16.92,16.92,0,0,0,1.35-1.57c.39-.53.83-1.15,1.29-1.87l.31-.47a1.23,1.23,0,0,1,1.06-.47,1.3,1.3,0,0,1,.67.2A.63.63,0,0,1,45.47,17.43Zm4.36.63c0,.77,0,1.51,0,2.22s0,1.8.14,3.22c0,.22,0,.65.07,1.31s.06,1.25.06,1.79l.38-.06.32,0a1,1,0,0,1,.63.19.77.77,0,0,1,.23.62.47.47,0,0,1-.21.41,1.92,1.92,0,0,1-.76.22c-.35,0-.86.05-1.53.05a13.85,13.85,0,0,1-1.67-.07,1.53,1.53,0,0,1-.78-.27.89.89,0,0,1-.21-.63.43.43,0,0,1,.2-.42,1.17,1.17,0,0,1,.55-.1h.38l.6,0-.09-2.12C48,23.28,48,22.23,48,21.27c0-.52,0-1.23.05-2.13l0-1c-.41,0-.73,0-1,0a.81.81,0,0,1-.54-.14,1,1,0,0,1-.12-.6c0-.33.23-.55.68-.65a12.2,12.2,0,0,1,2.13-.14,13.11,13.11,0,0,1,1.63.07c.38.05.56.16.56.33a1,1,0,0,1-.27.81,1.87,1.87,0,0,1-1,.18Zm11.34-.18a1.68,1.68,0,0,1,.24-.9.81.81,0,0,1,.73-.39,1.58,1.58,0,0,1,.74.16.56.56,0,0,1,.33.54c0,.49,0,1.18-.08,2.07s-.07,1.51-.07,1.93c0,.66,0,1.54.07,2.64s.08,1.83.08,2.32,0,.69,0,.89a.78.78,0,0,1-.33.57,1.4,1.4,0,0,1-1,.27,1.32,1.32,0,0,1-.59-.11A.77.77,0,0,1,61,27.6c-.56-.68-1.38-1.84-2.46-3.49-1.22-1.83-2.21-3.24-3-4.21a31.09,31.09,0,0,1,.14,3.17c0,.55,0,1.27,0,2.16s0,1.45-.07,1.73a1.57,1.57,0,0,1-.32.81,1,1,0,0,1-.76.27.78.78,0,0,1-.59-.22A1.55,1.55,0,0,1,53.7,27q0-.74.09-2.22,0-.22.06-.81t0-1q0-1.25-.12-2.85c-.08-1.17-.11-2-.11-2.61a.79.79,0,0,1,.3-.66,1.23,1.23,0,0,1,.74-.24,1.87,1.87,0,0,1,.76.18q1.54,1.95,4.19,5.8l1.69,2.59c0-.19,0-.46,0-.81q0-.91,0-2T61.26,21C61.2,19.8,61.17,18.77,61.17,17.88Zm12.89,1.79a3.42,3.42,0,0,1-.52-.42,9.19,9.19,0,0,0-1.1-.74,2.13,2.13,0,0,0-1-.25,6.52,6.52,0,0,0-1.58.2,3.69,3.69,0,0,0-1.28.56,2.71,2.71,0,0,0-1,1.47,7.83,7.83,0,0,0-.27,2.22,3.81,3.81,0,0,0,.87,2.46,3.36,3.36,0,0,0,1.25.92,3.79,3.79,0,0,0,1.52.33,3.26,3.26,0,0,0,2.59-1,2.92,2.92,0,0,0,.61-1.89c0-.13-.1-.22-.29-.27a4.07,4.07,0,0,0-.82-.07,7,7,0,0,1-.85-.07l-.36,0h-.38a1.54,1.54,0,0,1-.83-.2.59.59,0,0,1-.3-.51.71.71,0,0,1,.29-.63,1.26,1.26,0,0,1,.77-.21c.37,0,.94,0,1.71.07s1.23.07,1.53.07a1.33,1.33,0,0,1,1,.4A1.57,1.57,0,0,1,76,23.23a5.51,5.51,0,0,1-.3,1.64,5.89,5.89,0,0,1-.87,1.67,3.43,3.43,0,0,1-1.6,1.14,6.53,6.53,0,0,1-2.3.39,6,6,0,0,1-2-.36,5.14,5.14,0,0,1-1.69-1,5.62,5.62,0,0,1-1.31-1.83,5.41,5.41,0,0,1-.47-2.14A8.09,8.09,0,0,1,66,19.67a4.8,4.8,0,0,1,1.81-2.24,5,5,0,0,1,1.65-.59,9.46,9.46,0,0,1,2-.23,4.48,4.48,0,0,1,2.16.52,4.33,4.33,0,0,1,1.52,1.29,1.11,1.11,0,0,1,.21.58.75.75,0,0,1-.25.54.73.73,0,0,1-.5.25l-.26,0Z"/></g></g></svg>