<svg xmlns="http://www.w3.org/2000/svg" viewBox="0 0 94 43"><defs><style>.cls-1{fill:#3f3f83;stroke:#3a0a0a;stroke-width:3px;}</style></defs><title>Asset 8</title><g id="Layer_2" data-name="Layer 2"><g id="Layer_1-2" data-name="Layer 1"><rect class="cls-1" x="1.5" y="1.5" width="91" height="40" rx="8.5"/><path d="M27.49,19.34a8.17,8.17,0,0,0-1.33-.81,2.93,2.93,0,0,0-1.3-.27,4.19,4.19,0,0,0-2.53.76,3.51,3.51,0,0,0-1.21,1.55,5.59,5.59,0,0,0-.4,2.14,3.81,3.81,0,0,0,.53,2A3.48,3.48,0,0,0,22.6,26a3.53,3.53,0,0,0,1.72.45,4,4,0,0,0,1.55-.27,2.83,2.83,0,0,0,1.06-.74,3.19,3.19,0,0,0,.62-2.05c0-.12-.1-.2-.29-.25a3.54,3.54,0,0,0-.83-.07l-1.3,0a1.51,1.51,0,0,1-.82-.2.58.58,0,0,1-.31-.51.74.74,0,0,1,.29-.63,1.28,1.28,0,0,1,.77-.21c.39,0,.9,0,1.55.07s1.12.07,1.4.07a1.31,1.31,0,0,1,1,.4,1.53,1.53,0,0,1,.4,1.15,5.25,5.25,0,0,1-.31,1.64,5.62,5.62,0,0,1-.86,1.67,3.35,3.35,0,0,1-1.6,1.1,7.12,7.12,0,0,1-2.33.36,6.21,6.21,0,0,1-2.05-.34,4.61,4.61,0,0,1-1.65-1,5.65,5.65,0,0,1-1.32-1.83,5.41,5.41,0,0,1-.47-2.14,6.7,6.7,0,0,1,.72-3,5.86,5.86,0,0,1,2-2.29,4.91,4.91,0,0,1,1.52-.59,7.37,7.37,0,0,1,1.78-.23A5.78,5.78,0,0,1,27,17a3.12,3.12,0,0,1,1.46,1.1,1.14,1.14,0,0,1,.22.58.77.77,0,0,1-.26.54.73.73,0,0,1-.5.25.81.81,0,0,1-.25,0A.5.5,0,0,1,27.49,19.34ZM39.6,21.56c0-.2,0-.48,0-.87V20a8.86,8.86,0,0,0,0-1c0-.19,0-.69,0-1.49a.87.87,0,0,1,.25-.67,1,1,0,0,1,.72-.25.93.93,0,0,1,.77.25,1.39,1.39,0,0,1,.2.83v.68l0,2c0,.39,0,1,0,1.73l0,1.48c0,.23,0,.54,0,.95s0,.79,0,1.39,0,1,0,1.24a1,1,0,0,1-.2.63.56.56,0,0,1-.5.29c-.84,0-1.26-.28-1.26-.85,0-.31,0-.66,0-1s0-.7,0-1.26q0-.6,0-1.71c-.57.05-1.54.07-2.92.07h-2a5.65,5.65,0,0,1-1-.09l0,2.07c0,.13,0,.49.09,1.06a6.7,6.7,0,0,1,.09,1,.7.7,0,0,1-.32.52,1,1,0,0,1-.58.24,1.07,1.07,0,0,1-.88-.31,1.64,1.64,0,0,1-.23-1l0-1.42c0-.17,0-.41,0-.71s0-1.05,0-1.81,0-1.2,0-1.52,0-1.12,0-2,0-1.38,0-1.76A.9.9,0,0,1,32,16.8a1.13,1.13,0,0,1,.65-.19c.67,0,1,.22,1,.66,0,.79,0,1.55-.05,2.27,0,.91,0,1.58,0,2a6.48,6.48,0,0,0,1.1.16c.39,0,.93,0,1.62,0A23.08,23.08,0,0,0,39.6,21.56Zm9.47-5a7.22,7.22,0,0,1,2.2.31,4,4,0,0,1,1.62.86A5.83,5.83,0,0,1,54.47,20a8.75,8.75,0,0,1,.47,3.1,2.36,2.36,0,0,1-.11.72,8.23,8.23,0,0,1-.3.83,3.68,3.68,0,0,0-.33.88A3.75,3.75,0,0,1,53,26.7a7.43,7.43,0,0,1-1.76.94,4.84,4.84,0,0,1-1.67.36q-3.48,0-4.95-2.38A5.79,5.79,0,0,1,44,24.24a4.7,4.7,0,0,1-.22-1.41,7.31,7.31,0,0,1,.65-3.18,5.19,5.19,0,0,1,1.84-2.13,8.7,8.7,0,0,1,1.45-.68A4.11,4.11,0,0,1,49.07,16.55Zm-3.44,6.34a2.75,2.75,0,0,0,.44,1.6,7.23,7.23,0,0,0,1.36,1.37l1,.38a2.77,2.77,0,0,0,.61.07,4.13,4.13,0,0,0,2.9-1,3.51,3.51,0,0,0,1.08-2.72,6,6,0,0,0-.31-2.16A3.38,3.38,0,0,0,51.65,19a2.67,2.67,0,0,0-1.07-.51,5.83,5.83,0,0,0-1.36-.16,2.91,2.91,0,0,0-1.93.67,4.12,4.12,0,0,0-1.24,1.69A5.79,5.79,0,0,0,45.63,22.89Zm19.62,1.85a2.66,2.66,0,0,1-.4,1.46,3.49,3.49,0,0,1-1.26,1.1,4.69,4.69,0,0,1-1.39.54,7.14,7.14,0,0,1-1.6.18,5.33,5.33,0,0,1-2.05-.54,4.28,4.28,0,0,1-1.4-1,1.94,1.94,0,0,1-.51-1.29,1,1,0,0,1,.22-.71.93.93,0,0,1,.7-.23.81.81,0,0,1,.52.22.82.82,0,0,1,.33.39A2.1,2.1,0,0,0,59.29,26a3,3,0,0,0,1.56.37,3.75,3.75,0,0,0,1.8-.39,1.19,1.19,0,0,0,.74-1.06,1.41,1.41,0,0,0-.79-1.16A5.45,5.45,0,0,0,61,23a11.78,11.78,0,0,1-2.11-.77,3.63,3.63,0,0,1-1.42-1.15A2.55,2.55,0,0,1,57,19.67a2.59,2.59,0,0,1,.49-1.43,3,3,0,0,1,1.15-1.06,6.56,6.56,0,0,1,1.23-.38,6.2,6.2,0,0,1,1.27-.21,5.16,5.16,0,0,1,1.07.12,3.62,3.62,0,0,1,1,.36,6,6,0,0,1,1.17.81,1.2,1.2,0,0,1,.38.9.83.83,0,0,1-.25.58,1.11,1.11,0,0,1-.83.25.46.46,0,0,1-.29-.12,3.47,3.47,0,0,1-.36-.38,1.71,1.71,0,0,0-.56-.51,5.21,5.21,0,0,0-.72-.19,3,3,0,0,0-.81-.11,2.49,2.49,0,0,0-.9.18,2.14,2.14,0,0,0-.79.52,1.1,1.1,0,0,0-.31.76.8.8,0,0,0,.33.63,3.41,3.41,0,0,0,.81.41,10.72,10.72,0,0,0,1.17.38c.55.17,1,.32,1.35.47a5.85,5.85,0,0,1,1,.5,4.1,4.1,0,0,1,1.28,1.08A2.53,2.53,0,0,1,65.25,24.74Zm.92-7.23q0-.78,1.14-.78c.32,0,.94,0,1.85,0s1.77.07,2.29.07.93,0,1.53-.07l.77,0a4.54,4.54,0,0,1,1.68.36,1,1,0,0,1,.32.22.57.57,0,0,1,.13.41,1,1,0,0,1-.26.69.79.79,0,0,1-.61.27,9.27,9.27,0,0,1-1.15-.11,5.88,5.88,0,0,0-1.17-.13l-.74,0c0,.4,0,1.34,0,2.84,0,1.79,0,3.6.16,5.44l0,.52c0,.49-.29.74-.85.74a1.07,1.07,0,0,1-.9-.31,1.62,1.62,0,0,1-.23-1c0-.85,0-1.91-.08-3.18,0-1.06-.07-1.81-.07-2.25s0-1.22.11-2.76l-2.11,0a3.74,3.74,0,0,1-1.4-.18A.87.87,0,0,1,66.17,17.51Z"/></g></g></svg>