<svg xmlns="http://www.w3.org/2000/svg" viewBox="0 0 278 127.17"><defs><style>.cls-1{fill:#3dd03d;stroke:#1eb11e;stroke-width:8.87px;}</style></defs><title>Asset 16</title><g id="Layer_2" data-name="Layer 2"><g id="Layer_1-2" data-name="Layer 1"><rect class="cls-1" x="4.44" y="4.44" width="269.12" height="118.3" rx="25.14"/><path d="M85.47,54.24a24.17,24.17,0,0,0-3.94-2.39,8.75,8.75,0,0,0-3.84-.8,12.58,12.58,0,0,0-7.5,2.24,10.55,10.55,0,0,0-3.57,4.57,16.46,16.46,0,0,0-1.17,6.34A11.23,11.23,0,0,0,67,70.11a10.74,10.74,0,0,0,9.11,5.16,11.68,11.68,0,0,0,4.57-.8,8.5,8.5,0,0,0,3.14-2.18,9.5,9.5,0,0,0,1.81-6.07c0-.35-.28-.6-.85-.74a10.15,10.15,0,0,0-2.45-.22l-3.83.06A4.48,4.48,0,0,1,76,64.73a1.74,1.74,0,0,1-.9-1.49A2.09,2.09,0,0,1,76,61.38a3.7,3.7,0,0,1,2.29-.64c1.13,0,2.66.07,4.58.21s3.3.21,4.15.21a4,4,0,0,1,3,1.18,4.6,4.6,0,0,1,1.17,3.4,16,16,0,0,1-.9,4.85,17.09,17.09,0,0,1-2.56,5A9.83,9.83,0,0,1,83,78.79a21.19,21.19,0,0,1-6.86,1.06,18.54,18.54,0,0,1-6.07-1A14,14,0,0,1,65.13,76a17.24,17.24,0,0,1-3.89-5.43,15.88,15.88,0,0,1-1.38-6.34A19.87,19.87,0,0,1,62,55.36a16.82,16.82,0,0,1,5.86-6.76,14,14,0,0,1,4.47-1.75,22.18,22.18,0,0,1,5.27-.7,17,17,0,0,1,6.54,1.17,9.29,9.29,0,0,1,4.32,3.25,3.25,3.25,0,0,1,.64,1.7,2.22,2.22,0,0,1-.75,1.6,2.14,2.14,0,0,1-1.49.75,3.31,3.31,0,0,1-.75-.11A1.7,1.7,0,0,1,85.47,54.24Zm39.2,20.61a1.49,1.49,0,0,1,1.28.69,2.43,2.43,0,0,1,.53,1.49,2.45,2.45,0,0,1-1.07,2.13,4.62,4.62,0,0,1-2.66.69,7.91,7.91,0,0,1-3.94-.85,7.27,7.27,0,0,1-2.66-3.2,21.74,21.74,0,0,1-.9-2.76,16.42,16.42,0,0,0-1-3,4.38,4.38,0,0,0-1.65-2,5.52,5.52,0,0,0-3.08-.85l-1.17,0c-1.21.07-2.12.11-2.72.11a11.9,11.9,0,0,1-2-.16c.07,4.68.1,8.27.1,10.75a1.9,1.9,0,0,1-1,1.6,3.51,3.51,0,0,1-2.08.64,2.58,2.58,0,0,1-2.18-1.07,8.66,8.66,0,0,1-.64-3.78c0-.56,0-1.38.1-2.44L98,70.53c0-2.16.09-4.49.26-7,.15-2.84.22-4.91.22-6.23a41.48,41.48,0,0,0-.32-4.42c0-.35-.09-.92-.16-1.7s-.11-1.54-.11-2.18a1.79,1.79,0,0,1,.59-1.28A2.76,2.76,0,0,1,99.65,47a55.11,55.11,0,0,1,8.62-.69q6.93,0,11.34,2.61a8.64,8.64,0,0,1,4.42,8,7.66,7.66,0,0,1-.85,3.35,7.18,7.18,0,0,1-2,2.66,10,10,0,0,1-4.47,2.34l1.17,1.07a5,5,0,0,1,1.44,2l.69,2.13a31.46,31.46,0,0,0,1.44,3.62,1.58,1.58,0,0,0,1.38,1,2.34,2.34,0,0,0,1-.11A2.52,2.52,0,0,1,124.67,74.85ZM103.53,62.66c1.07.07,1.81.1,2.24.1.64,0,1.53,0,2.66-.1l2.5-.06a8.82,8.82,0,0,0,3.41-.74,8,8,0,0,0,2.93-2.08,4.66,4.66,0,0,0,1.17-3.09A4.72,4.72,0,0,0,116,52.27q-2.44-1.38-7.61-1.38a24.4,24.4,0,0,0-4.63.53c.07,1.28.1,2.2.1,2.77s0,1.69-.1,3l-.06,1.54C103.59,60.26,103.53,61.56,103.53,62.66Zm51.54,16.39a9.94,9.94,0,0,1-1.17-2c-.32-.74-.66-1.63-1-2.66-.07-.18-.29-.71-.64-1.6a10.62,10.62,0,0,0-1.12-2.29,40.18,40.18,0,0,1-5.48.48c-.78,0-1.65,0-2.61-.05s-1.62-.11-2.08-.11q-2.66-.21-4.26-.21a12.36,12.36,0,0,0-1.11,1.81c-.29.64-.66,1.6-1.12,2.87a23.8,23.8,0,0,1-1.65,3.94,2,2,0,0,1-1.86.8,5,5,0,0,1-2.19-.48,1.59,1.59,0,0,1-1-1.43,25.26,25.26,0,0,1,1.34-4.26c.63-1.53,1.54-3.55,2.71-6.07L134,62.6c1.17-3,2.24-5.53,3.19-7.66s2.29-4.65,3.89-7.56a2.59,2.59,0,0,1,1.06-1.07,3,3,0,0,1,1.65-.48,4.71,4.71,0,0,1,1.44.16,1.34,1.34,0,0,1,.75.43,7.88,7.88,0,0,1,.8,1.17,40.44,40.44,0,0,1,3.08,5.8q1.34,3,3.36,8.25l1.11,2.83q1.5,3.82,2.56,6.44a36.66,36.66,0,0,0,2.45,4.68,4.7,4.7,0,0,1,.85,1.92,2.48,2.48,0,0,1-.8,2,2.93,2.93,0,0,1-2,.64A2.74,2.74,0,0,1,155.07,79.05Zm-5.48-12.88q-.85-1.82-2.45-6.28a43.73,43.73,0,0,0-3.3-7.62q-1,2.56-3,6.61a57.58,57.58,0,0,0-3,7.24,60.19,60.19,0,0,0,7.35.42A20.4,20.4,0,0,0,149.59,66.17Zm39.16,4a7.8,7.8,0,0,1-1.17,4.32,10.42,10.42,0,0,1-3.73,3.24,13.6,13.6,0,0,1-4.1,1.6,21,21,0,0,1-4.74.53A15.74,15.74,0,0,1,169,78.31a13.31,13.31,0,0,1-4.16-3,5.82,5.82,0,0,1-1.49-3.83,2.89,2.89,0,0,1,.64-2.08,2.73,2.73,0,0,1,2.08-.69,2.48,2.48,0,0,1,1.54.64,2.37,2.37,0,0,1,1,1.17,6.19,6.19,0,0,0,2.61,3.35A8.8,8.8,0,0,0,175.76,75a10.93,10.93,0,0,0,5.32-1.17,3.51,3.51,0,0,0,2.18-3.14c0-1.28-.78-2.41-2.34-3.41a15.79,15.79,0,0,0-4.79-2.07,35.18,35.18,0,0,1-6.23-2.29,10.52,10.52,0,0,1-4.2-3.41,7,7,0,0,1,.05-8.46,8.6,8.6,0,0,1,3.41-3.14,17.33,17.33,0,0,1,3.62-1.12,17.89,17.89,0,0,1,3.78-.64,14.18,14.18,0,0,1,3.14.37,9.81,9.81,0,0,1,2.82,1.07A18.11,18.11,0,0,1,186,49.93a3.55,3.55,0,0,1,1.12,2.66,2.36,2.36,0,0,1-.75,1.71,3.29,3.29,0,0,1-2.45.74,1.3,1.3,0,0,1-.85-.37A11.1,11.1,0,0,1,182,53.55a4.88,4.88,0,0,0-1.65-1.49,14.39,14.39,0,0,0-2.13-.58,9.56,9.56,0,0,0-2.4-.32,7.28,7.28,0,0,0-2.66.53,6.29,6.29,0,0,0-2.34,1.54,3.15,3.15,0,0,0-.91,2.24,2.36,2.36,0,0,0,1,1.86,8.88,8.88,0,0,0,2.4,1.23,29.3,29.3,0,0,0,3.46,1.11c1.63.5,3,1,4,1.39a18.27,18.27,0,0,1,3.09,1.49,12.12,12.12,0,0,1,3.78,3.19A7.47,7.47,0,0,1,188.75,70.21Zm29.89,0a7.8,7.8,0,0,1-1.17,4.32,10.42,10.42,0,0,1-3.73,3.24,13.6,13.6,0,0,1-4.1,1.6,21,21,0,0,1-4.73.53,15.74,15.74,0,0,1-6.07-1.59,13.31,13.31,0,0,1-4.16-3,5.82,5.82,0,0,1-1.49-3.83,2.89,2.89,0,0,1,.64-2.08,2.73,2.73,0,0,1,2.08-.69,2.46,2.46,0,0,1,1.54.64,2.32,2.32,0,0,1,1,1.17A6.19,6.19,0,0,0,201,73.83,8.82,8.82,0,0,0,205.65,75,10.93,10.93,0,0,0,211,73.78a3.52,3.52,0,0,0,2.19-3.14c0-1.28-.78-2.41-2.35-3.41A15.68,15.68,0,0,0,206,65.16a35.06,35.06,0,0,1-6.22-2.29,10.49,10.49,0,0,1-4.21-3.41,7.07,7.07,0,0,1,0-8.46,8.66,8.66,0,0,1,3.41-3.14,17.54,17.54,0,0,1,3.62-1.12,17.89,17.89,0,0,1,3.78-.64,17.44,17.44,0,0,1,3.41.37,9.8,9.8,0,0,1,3,1.07,17.79,17.79,0,0,1,3.46,2.39,3.51,3.51,0,0,1,1.12,2.66,2.36,2.36,0,0,1-.75,1.71,3.27,3.27,0,0,1-2.45.74,1.3,1.3,0,0,1-.85-.37,11.1,11.1,0,0,1-1.06-1.12,4.88,4.88,0,0,0-1.65-1.49,21.35,21.35,0,0,0-2.34-.58,12.52,12.52,0,0,0-2.67-.32,7.32,7.32,0,0,0-2.66.53,6.29,6.29,0,0,0-2.34,1.54,3.18,3.18,0,0,0-.9,2.24,2.35,2.35,0,0,0,.95,1.86,9,9,0,0,0,2.4,1.23,29.3,29.3,0,0,0,3.46,1.11c1.63.5,3,1,4,1.39a17.56,17.56,0,0,1,3.09,1.49,12.12,12.12,0,0,1,3.78,3.19A7.47,7.47,0,0,1,218.64,70.21Z"/></g></g></svg>