<svg xmlns="http://www.w3.org/2000/svg" viewBox="0 0 94 43"><defs><style>.cls-1{fill:#e6ac00;stroke:#a77d01;stroke-width:3px;}</style></defs><title>Asset 5</title><g id="Layer_2" data-name="Layer 2"><g id="Layer_1-2" data-name="Layer 1"><rect class="cls-1" x="1.5" y="1.5" width="91" height="40" rx="8.5"/><path d="M20.24,19.34a8.17,8.17,0,0,0-1.33-.81,2.93,2.93,0,0,0-1.3-.27,4.19,4.19,0,0,0-2.53.76,3.51,3.51,0,0,0-1.21,1.55,5.59,5.59,0,0,0-.4,2.14,3.81,3.81,0,0,0,.53,2A3.48,3.48,0,0,0,15.35,26a3.53,3.53,0,0,0,1.72.45,4,4,0,0,0,1.55-.27,2.83,2.83,0,0,0,1.06-.74,3.19,3.19,0,0,0,.62-2.05c0-.12-.1-.2-.29-.25a3.54,3.54,0,0,0-.83-.07l-1.3,0a1.51,1.51,0,0,1-.82-.2.58.58,0,0,1-.31-.51.74.74,0,0,1,.29-.63,1.28,1.28,0,0,1,.77-.21c.39,0,.9,0,1.55.07s1.12.07,1.4.07a1.31,1.31,0,0,1,1,.4,1.53,1.53,0,0,1,.4,1.15,5.25,5.25,0,0,1-.31,1.64A5.62,5.62,0,0,1,21,26.54a3.35,3.35,0,0,1-1.6,1.1,7.12,7.12,0,0,1-2.33.36A6.21,6.21,0,0,1,15,27.66a4.61,4.61,0,0,1-1.65-1,5.65,5.65,0,0,1-1.32-1.83,5.41,5.41,0,0,1-.47-2.14,6.7,6.7,0,0,1,.72-3,5.86,5.86,0,0,1,2-2.29,4.91,4.91,0,0,1,1.52-.59,7.37,7.37,0,0,1,1.78-.23,5.78,5.78,0,0,1,2.21.39,3.12,3.12,0,0,1,1.46,1.1,1.14,1.14,0,0,1,.22.58.77.77,0,0,1-.26.54.73.73,0,0,1-.5.25.81.81,0,0,1-.25,0A.5.5,0,0,1,20.24,19.34Zm13.26,7a.51.51,0,0,1,.43.23.86.86,0,0,1-.18,1.23,1.62,1.62,0,0,1-.9.23,2.68,2.68,0,0,1-1.33-.29,2.38,2.38,0,0,1-.9-1.08,6.54,6.54,0,0,1-.31-.93,5.61,5.61,0,0,0-.34-1,1.49,1.49,0,0,0-.56-.67,1.83,1.83,0,0,0-1-.28H28c-.41,0-.71,0-.92,0a4.94,4.94,0,0,1-.68-.05c0,1.58,0,2.79,0,3.63a.62.62,0,0,1-.33.54,1.14,1.14,0,0,1-.7.22.88.88,0,0,1-.74-.36,3.06,3.06,0,0,1-.21-1.28c0-.19,0-.47,0-.83l0-.79c0-.73,0-1.52.09-2.36s.07-1.66.07-2.1a12.07,12.07,0,0,0-.11-1.5c0-.12,0-.31-.05-.57s0-.53,0-.74a.6.6,0,0,1,.2-.43.91.91,0,0,1,.4-.26A19.22,19.22,0,0,1,28,16.66a7.48,7.48,0,0,1,3.84.88,2.94,2.94,0,0,1,1.49,2.7A2.53,2.53,0,0,1,33,21.38a2.43,2.43,0,0,1-.68.9,3.5,3.5,0,0,1-1.51.79l.39.36a1.61,1.61,0,0,1,.49.68l.23.72a11.27,11.27,0,0,0,.49,1.23.54.54,0,0,0,.47.32.65.65,0,0,0,.32,0A1,1,0,0,1,33.5,26.31Zm-7.15-4.12.76,0,.9,0,.84,0A3.11,3.11,0,0,0,30,21.92a2.85,2.85,0,0,0,1-.71,1.68,1.68,0,0,0-.44-2.53A5.31,5.31,0,0,0,28,18.21a8.21,8.21,0,0,0-1.57.18c0,.43,0,.74,0,.93s0,.57,0,1v.52C26.37,21.38,26.35,21.81,26.35,22.19Zm14.17-5.64a7.27,7.27,0,0,1,2.2.31,4,4,0,0,1,1.62.86A5.83,5.83,0,0,1,45.92,20a8.75,8.75,0,0,1,.47,3.1,2.36,2.36,0,0,1-.11.72,6.63,6.63,0,0,1-.31.83,3.57,3.57,0,0,0-.32.88,3.85,3.85,0,0,1-1.19,1.2,7.63,7.63,0,0,1-1.76.94A4.89,4.89,0,0,1,41,28q-3.47,0-5-2.38a6.16,6.16,0,0,1-.64-1.38,4.7,4.7,0,0,1-.22-1.41,7.31,7.31,0,0,1,.65-3.18,5.16,5.16,0,0,1,1.83-2.13,9.19,9.19,0,0,1,1.46-.68A4.06,4.06,0,0,1,40.52,16.55Zm-3.44,6.34a2.82,2.82,0,0,0,.43,1.6,7.33,7.33,0,0,0,1.37,1.37l1,.38a2.77,2.77,0,0,0,.61.07,4.13,4.13,0,0,0,2.9-1A3.51,3.51,0,0,0,44.5,22.6a6,6,0,0,0-.31-2.16A3.33,3.33,0,0,0,43.09,19,2.62,2.62,0,0,0,42,18.51a5.85,5.85,0,0,0-1.37-.16,2.9,2.9,0,0,0-1.92.67,4,4,0,0,0-1.24,1.69A5.79,5.79,0,0,0,37.08,22.89ZM50.5,17.56c0,.35,0,.89,0,1.64l0,1.4a13.49,13.49,0,0,0,.25,2.86A6.21,6.21,0,0,0,51,24.62a4.87,4.87,0,0,0,.6.86,2.17,2.17,0,0,0,.79.58,2.68,2.68,0,0,0,1,.19,3.37,3.37,0,0,0,1.4-.25,1.7,1.7,0,0,0,.87-.86,6.32,6.32,0,0,0,.54-2.76c0-.68,0-1.51-.13-2.5S56,18,56,17.51a.76.76,0,0,1,.4-.67,1.33,1.33,0,0,1,.72-.25.83.83,0,0,1,.75.3,1.2,1.2,0,0,1,.22.72,7.58,7.58,0,0,1,0,.9c0,.32,0,.54,0,.67,0,.46,0,1.18.07,2.16,0,.25,0,.55,0,.88s0,.7,0,1.08a5,5,0,0,1-.58,2.32,4.54,4.54,0,0,1-1.62,1.75,4.89,4.89,0,0,1-5.56-.43,5.85,5.85,0,0,1-1.51-3.1,17.87,17.87,0,0,1-.31-2.66c0-1,0-2.26,0-3.78a.74.74,0,0,1,.27-.54.89.89,0,0,1,.61-.25C50.12,16.61,50.5,16.92,50.5,17.56Zm17.57.32a1.68,1.68,0,0,1,.24-.9.81.81,0,0,1,.73-.39,1.58,1.58,0,0,1,.74.16.56.56,0,0,1,.33.54c0,.49,0,1.18-.08,2.07S70,20.87,70,21.29c0,.66,0,1.54.07,2.64s.08,1.83.08,2.32,0,.69,0,.89a.78.78,0,0,1-.33.57,1.4,1.4,0,0,1-1,.27,1.32,1.32,0,0,1-.59-.11.77.77,0,0,1-.33-.27c-.56-.68-1.38-1.84-2.46-3.49-1.22-1.83-2.21-3.24-3-4.21a31.09,31.09,0,0,1,.14,3.17c0,.55,0,1.27,0,2.16s0,1.45-.07,1.73a1.57,1.57,0,0,1-.32.81,1,1,0,0,1-.76.27.78.78,0,0,1-.59-.22A1.55,1.55,0,0,1,60.6,27q0-.74.09-2.22,0-.22.06-.81t0-1q0-1.25-.12-2.85c-.08-1.17-.11-2-.11-2.61a.79.79,0,0,1,.3-.66,1.23,1.23,0,0,1,.74-.24,1.87,1.87,0,0,1,.76.18q1.55,1.95,4.19,5.8l1.69,2.59c0-.19,0-.46,0-.81q0-.91,0-2T68.16,21C68.1,19.8,68.07,18.77,68.07,17.88Zm7.2-1.29a9.17,9.17,0,0,1,3.87.68,6.66,6.66,0,0,1,2.18,1.5,5.83,5.83,0,0,1,1,1.58,5.43,5.43,0,0,1,.38,2.12,5,5,0,0,1-.42,1.93A4.34,4.34,0,0,1,81.17,26a9,9,0,0,1-1.33,1.08,5.35,5.35,0,0,1-1.67.69A12.22,12.22,0,0,1,75.5,28a8.42,8.42,0,0,1-2.21-.27q-1-.29-1-1a.47.47,0,0,1,.23-.41,1,1,0,0,1,.54-.16.59.59,0,0,1,.22,0q.12-1.2.12-2.52c0-1,0-1.82-.07-2.47s-.11-1.31-.2-2c0-.09,0-.32-.09-.7s0-.78,0-1.17a.73.73,0,0,1,.38-.63,1.31,1.31,0,0,1,.77-.27l.63,0A3.74,3.74,0,0,0,75.27,16.59ZM75,26.33a8.43,8.43,0,0,0,1.14.07,5.27,5.27,0,0,0,2.25-.49,4.41,4.41,0,0,0,1.71-1.38,3.47,3.47,0,0,0,.65-2.07,4.58,4.58,0,0,0-.44-2.09A3.41,3.41,0,0,0,79,19a4.6,4.6,0,0,0-1.64-.6,11.93,11.93,0,0,0-2.34-.2q0,.44.06,1.08c0,.15,0,.4,0,.76.08,1.39.11,2.51.11,3.37A17,17,0,0,1,75,26.33Z"/></g></g></svg>