<svg xmlns="http://www.w3.org/2000/svg" viewBox="0 0 278 127.17"><defs><style>.cls-1{fill:#d9d9d9;stroke:#645252;stroke-width:8.87px;}</style></defs><title>Asset 3</title><g id="Layer_2" data-name="Layer 2"><g id="Layer_1-2" data-name="Layer 1"><rect class="cls-1" x="4.44" y="4.44" width="269.12" height="118.3" rx="25.14"/><path d="M60.1,52.89a5,5,0,0,1,.69-2.66A2.42,2.42,0,0,1,63,49.06a4.76,4.76,0,0,1,2.18.48,1.65,1.65,0,0,1,1,1.59q0,2.19-.21,6.13c-.14,2.55-.21,4.45-.21,5.69q0,2.92.21,7.83.21,4.68.21,6.86c0,1.17,0,2,0,2.61a2.37,2.37,0,0,1-1,1.71,4.18,4.18,0,0,1-2.82.79,4.36,4.36,0,0,1-1.76-.32,2.48,2.48,0,0,1-1-.79q-2.49-3-7.29-10.33-5.37-8.15-8.78-12.46a88.13,88.13,0,0,1,.42,9.37q0,2.44-.1,6.39c0,2.59-.11,4.29-.22,5.11a4.55,4.55,0,0,1-1,2.4,2.82,2.82,0,0,1-2.24.79,2.26,2.26,0,0,1-1.76-.64A4.44,4.44,0,0,1,38,79.93c0-1.45.05-3.64.26-6.55,0-.46.09-1.26.16-2.39s.11-2.15.11-3c0-2.45-.13-5.26-.37-8.42-.22-3.47-.32-6-.32-7.71a2.33,2.33,0,0,1,.9-2,3.59,3.59,0,0,1,2.18-.7,5.36,5.36,0,0,1,2.24.54q4.57,5.74,12.4,17.14l5,7.66c0-.57.05-1.36.05-2.39,0-1.81,0-3.76-.11-5.86s-.12-3.51-.16-4.26Q60.11,56.83,60.1,52.89ZM88.41,49a21.71,21.71,0,0,1,6.49.91,11.86,11.86,0,0,1,4.79,2.55,16.8,16.8,0,0,1,4.69,6.66,25.62,25.62,0,0,1,1.38,9.15,6.8,6.8,0,0,1-.32,2.13,21.43,21.43,0,0,1-.9,2.45,9.94,9.94,0,0,0-1,2.61A11.37,11.37,0,0,1,100.06,79a22.6,22.6,0,0,1-5.21,2.77,14.33,14.33,0,0,1-4.95,1.07q-10.28,0-14.64-7a18.4,18.4,0,0,1-1.92-4.1,14.6,14.6,0,0,1-.64-4.15,21.52,21.52,0,0,1,1.92-9.42,15.13,15.13,0,0,1,5.43-6.28,24.52,24.52,0,0,1,4.31-2A11.8,11.8,0,0,1,88.41,49ZM78.24,67.69a8.23,8.23,0,0,0,1.28,4.74,21.23,21.23,0,0,0,4,4c1.49.57,2.5.94,3,1.12a7.09,7.09,0,0,0,1.81.21A12.2,12.2,0,0,0,97,74.88a10.38,10.38,0,0,0,3.19-8,18.3,18.3,0,0,0-.9-6.39A10.17,10.17,0,0,0,96,56.24a7.91,7.91,0,0,0-3.14-1.49,16.18,16.18,0,0,0-4-.48,8.67,8.67,0,0,0-5.69,2,12.37,12.37,0,0,0-3.68,5A17.42,17.42,0,0,0,78.24,67.69Zm61,10.11a1.47,1.47,0,0,1,1.28.7A2.35,2.35,0,0,1,141,80,2.45,2.45,0,0,1,140,82.12a4.65,4.65,0,0,1-2.66.69,8,8,0,0,1-3.94-.85,7.26,7.26,0,0,1-2.66-3.2A23.42,23.42,0,0,1,129.8,76a17.15,17.15,0,0,0-1-3,4.38,4.38,0,0,0-1.65-2,5.48,5.48,0,0,0-3.09-.85l-1.17,0c-1.21.07-2.11.11-2.71.11a13.15,13.15,0,0,1-2-.16c.07,4.68.11,8.27.11,10.75a1.88,1.88,0,0,1-1,1.6,3.53,3.53,0,0,1-2.07.64A2.6,2.6,0,0,1,113,82.06a8.81,8.81,0,0,1-.64-3.78c0-.57,0-1.38.11-2.45l0-2.34c0-2.16.09-4.49.27-7q.21-4.26.21-6.23a39,39,0,0,0-.32-4.42c0-.35-.09-.92-.16-1.7s-.1-1.55-.1-2.18a1.76,1.76,0,0,1,.58-1.28A2.76,2.76,0,0,1,114.2,50a55.24,55.24,0,0,1,8.63-.69q6.92,0,11.34,2.61a8.65,8.65,0,0,1,4.41,8,7.66,7.66,0,0,1-.85,3.36,7.14,7.14,0,0,1-2,2.66,10,10,0,0,1-4.47,2.34l1.17,1.07a4.93,4.93,0,0,1,1.44,2l.69,2.13A28.73,28.73,0,0,0,136,77.06a1.56,1.56,0,0,0,1.38,1,2.41,2.41,0,0,0,1-.11A2.39,2.39,0,0,1,139.22,77.8ZM118.09,65.61c1.06.07,1.81.11,2.24.11.63,0,1.52,0,2.66-.11l2.5,0a8.66,8.66,0,0,0,3.41-.75,7.84,7.84,0,0,0,2.92-2.07A4.67,4.67,0,0,0,133,59.65a4.72,4.72,0,0,0-2.45-4.42c-1.64-.92-4.17-1.38-7.62-1.38a24.49,24.49,0,0,0-4.63.53c.07,1.28.11,2.2.11,2.77s0,1.68-.11,3l0,1.55C118.14,63.22,118.09,64.51,118.09,65.61Zm57.82-16.45a3,3,0,0,1,1.81,1c.74.63,1.12,1.18,1.12,1.65,0,2.16-.08,5.12-.22,8.89,0,.92-.07,2-.1,3.35s-.06,2.77-.06,4.47q0,4.26.11,7.19a25.29,25.29,0,0,0,.64,4.73,2.14,2.14,0,0,1-1,1.87,4.07,4.07,0,0,1-2,.53,2.54,2.54,0,0,1-2.66-1.44,13,13,0,0,1-.54-4.31q0-11.72.27-18.9a22.75,22.75,0,0,0-2.34,3q-1.12,1.7-2.77,4.47-2.13,3.57-3.46,5.43a4.94,4.94,0,0,1-1.23,1.17,3.15,3.15,0,0,1-1.59.32,3.08,3.08,0,0,1-2.08-.64,12.23,12.23,0,0,1-1.65-2.08c-.92-1.38-2.38-3.77-4.36-7.18L151,58.11q0,8.73.32,14.32.27,3.45.27,7.29a3.48,3.48,0,0,1-.69,2.18,2.3,2.3,0,0,1-2,.85,4.24,4.24,0,0,1-2.29-.53,1.9,1.9,0,0,1-.85-1.6c0-.6.05-1.59.05-3q0-7-.21-13l-.11-3.72c0-1.1-.07-2.38-.11-3.83s-.05-3.11-.05-4.85q0-3.2,3.46-3.19a4.66,4.66,0,0,1,2.13.53,3.44,3.44,0,0,1,1.65,1.54q.9,1.92,4.26,7.35t5,7.82a27,27,0,0,0,2-3c.64-1,1.17-1.91,1.59-2.66a58.83,58.83,0,0,1,4.26-6,37.82,37.82,0,0,0,2.88-3.94A4.18,4.18,0,0,1,174,49.64,4,4,0,0,1,175.91,49.16ZM211.16,82A9.94,9.94,0,0,1,210,80c-.32-.75-.66-1.63-1-2.66l-.64-1.6a10.39,10.39,0,0,0-1.12-2.29,40.18,40.18,0,0,1-5.48.48c-.78,0-1.65,0-2.61,0s-1.61-.11-2.07-.11q-2.67-.21-4.26-.21a11.61,11.61,0,0,0-1.12,1.81c-.28.64-.66,1.59-1.12,2.87a23.8,23.8,0,0,1-1.65,3.94,2,2,0,0,1-1.86.8,5,5,0,0,1-2.18-.48,1.6,1.6,0,0,1-1-1.44,24.84,24.84,0,0,1,1.33-4.26q1-2.28,2.71-6.06l2.13-5.22q1.75-4.47,3.2-7.67c1-2.13,2.29-4.65,3.88-7.56a2.6,2.6,0,0,1,1.07-1.06,3,3,0,0,1,1.65-.48,4.38,4.38,0,0,1,1.43.16,1.28,1.28,0,0,1,.75.43,6.33,6.33,0,0,1,.8,1.17,41,41,0,0,1,3.09,5.8q1.32,3,3.35,8.25l1.12,2.82c1,2.56,1.84,4.7,2.55,6.44a36.14,36.14,0,0,0,2.45,4.69,4.74,4.74,0,0,1,.85,1.91,2.43,2.43,0,0,1-.8,2,2.88,2.88,0,0,1-2,.64A2.75,2.75,0,0,1,211.16,82Zm-5.48-12.88c-.57-1.21-1.38-3.3-2.45-6.29a43.58,43.58,0,0,0-3.3-7.61c-.67,1.71-1.67,3.91-3,6.6a58.24,58.24,0,0,0-3,7.24,58.29,58.29,0,0,0,7.35.43A21.06,21.06,0,0,0,205.68,69.13Zm18-20.13a3.14,3.14,0,0,1,1.81.54,2.34,2.34,0,0,1,1,1.86,72.48,72.48,0,0,1,.8,8.41q.22,4.15.22,9.42,0,2.23-.38,8.15c1.56.14,2.77.21,3.62.21.61,0,2-.09,4.1-.27a24.5,24.5,0,0,1,3.25-.26,10,10,0,0,1,2.34.26,9.41,9.41,0,0,1,2.18.75,2.11,2.11,0,0,1,1.12,2A3,3,0,0,1,243,82a1.9,1.9,0,0,1-1.54.85,14.09,14.09,0,0,1-2-.22,33.58,33.58,0,0,0-4.79-.37,16,16,0,0,0-1.7.11c-.6,0-1.05,0-1.33,0a20,20,0,0,1-2.56.16,36.47,36.47,0,0,1-4.68-.27,4.76,4.76,0,0,1-2.13-.79,2.45,2.45,0,0,1-1.07-2.13c0-.54.08-1.9.22-4.1.25-3.66.37-6.44.37-8.36q0-2.23-.21-4.68t-.27-3.09a73.31,73.31,0,0,1-.48-7.45,2.76,2.76,0,0,1,.64-2A3.17,3.17,0,0,1,223.65,49Z"/></g></g></svg>