<svg xmlns="http://www.w3.org/2000/svg" viewBox="0 0 94 43"><defs><style>.cls-1{fill:#e8425f;stroke:#ec1238;stroke-width:3px;}</style></defs><title>Asset 4</title><g id="Layer_2" data-name="Layer 2"><g id="Layer_1-2" data-name="Layer 1"><rect class="cls-1" x="1.5" y="1.5" width="91" height="40" rx="8.5"/><path d="M16.27,23.93c-.47,0-.87,0-1.19,0s-.73-.09-1.24-.17l0,1.89c0,.33,0,.79,0,1.39a1,1,0,0,1-.27.74A.78.78,0,0,1,13,28a2.23,2.23,0,0,1-.89-.14.59.59,0,0,1-.28-.56c0-.35,0-.84.09-1.48.13-1.37.19-2.77.19-4.21S12,19,12,17.81a1.07,1.07,0,0,1,.25-.57.86.86,0,0,1,.63-.36,8.9,8.9,0,0,0,1.31-.15,11.12,11.12,0,0,1,1.43-.14,6.86,6.86,0,0,1,2.28.29,5.65,5.65,0,0,1,1.66.95,4.74,4.74,0,0,1,.9,2A4.5,4.5,0,0,1,19.92,22a3.45,3.45,0,0,1-1.42,1.46A4.48,4.48,0,0,1,16.27,23.93Zm-.42-5.81a5.87,5.87,0,0,0-1,.07,9.36,9.36,0,0,0-1,.2c.05,1.1.07,1.91.07,2.41s0,.95-.05,1.3c.51.1.92.18,1.22.21s.64,0,1,0A2.24,2.24,0,0,0,18,21.66,2.51,2.51,0,0,0,18.52,20a2,2,0,0,0-.16-.66,1.7,1.7,0,0,0-.29-.52,2.68,2.68,0,0,0-1-.58A3.82,3.82,0,0,0,15.85,18.12ZM30.19,24.9a2.36,2.36,0,0,1-.36,1.37,3.79,3.79,0,0,1-1.25,1,5.24,5.24,0,0,1-1.36.56,6.94,6.94,0,0,1-1.57.18,4.3,4.3,0,0,1-1.13-.18,10.85,10.85,0,0,1-1-.38l-.31-.27a9.67,9.67,0,0,1-1.13-1.06,1.71,1.71,0,0,1-.31-1,1,1,0,0,1,.22-.7.9.9,0,0,1,.7-.24.81.81,0,0,1,.47.16,1.56,1.56,0,0,1,.38.45A3.12,3.12,0,0,0,24.57,26a2.92,2.92,0,0,0,1.48.36,3.14,3.14,0,0,0,1.6-.48q.66-.42.66-.81a1.4,1.4,0,0,0-.63-1.17A5.88,5.88,0,0,0,25.92,23c-.47-.17-1.17-.48-2.11-.93a3.65,3.65,0,0,1-1.42-1.16,2.5,2.5,0,0,1-.47-1.44,2.27,2.27,0,0,1,.47-1.33,3.23,3.23,0,0,1,1.17-1,6.91,6.91,0,0,1,1.15-.38,5.2,5.2,0,0,1,1.19-.21,4.08,4.08,0,0,1,1.28.18,4.71,4.71,0,0,1,1.06.47,6,6,0,0,1,1.17.81,1.2,1.2,0,0,1,.38.9.78.78,0,0,1-.25.57,1.1,1.1,0,0,1-.83.25.46.46,0,0,1-.29-.12c-.09-.09-.21-.21-.36-.38a1.56,1.56,0,0,0-.56-.5l-.59-.24a3.32,3.32,0,0,0-1.26-.21,2.38,2.38,0,0,0-1.28.34,1,1,0,0,0-.56.95c0,.42.38.76,1.14,1s1.47.58,2,.81a11.53,11.53,0,0,1,1.56.81,3.89,3.89,0,0,1,1.26,1.1A2.56,2.56,0,0,1,30.19,24.9ZM41,17.43a1.82,1.82,0,0,1-.56,1c-.45.5-1.6,2.05-3.48,4.64,0,1.55.08,2.61.15,3.19,0,.36,0,.62,0,.77a1.16,1.16,0,0,1-.21.81,1,1,0,0,1-.71.2,1.29,1.29,0,0,1-.72-.22.68.68,0,0,1-.32-.55c0-.88,0-2.16-.05-3.86A.89.89,0,0,0,35,23l-.18-.32c-.25-.44-.57-.94-1-1.48a9.29,9.29,0,0,0-1-1.24,11.85,11.85,0,0,1-1.25-1.42,2.08,2.08,0,0,1-.45-.92.67.67,0,0,1,.35-.59,1.35,1.35,0,0,1,.77-.24,1.16,1.16,0,0,1,.49.13,1,1,0,0,1,.43.36c.71,1.06,1.34,1.93,1.89,2.63L36,21a14.34,14.34,0,0,0,1.35-1.57c.4-.53.83-1.15,1.3-1.87l.31-.47A1.22,1.22,0,0,1,40,16.64a1.24,1.24,0,0,1,.66.2A.64.64,0,0,1,41,17.43ZM51.24,18a3.78,3.78,0,0,1,.38.52.82.82,0,0,1,.11.38.8.8,0,0,1-.29.5.74.74,0,0,1-.54.29,1.16,1.16,0,0,1-.57-.11.79.79,0,0,1-.36-.34,3.12,3.12,0,0,0-.71-.74A2.11,2.11,0,0,0,48,18.19a5.22,5.22,0,0,0-1.73.34,3.07,3.07,0,0,0-1.37.85,4,4,0,0,0-.63,1.37A6.59,6.59,0,0,0,44,22.53a4.15,4.15,0,0,0,.45,1.92,3.62,3.62,0,0,0,1.33,1.39,4.26,4.26,0,0,0,3.48.27,3.12,3.12,0,0,0,1.24-.86h0a1.08,1.08,0,0,1,.81-.35.77.77,0,0,1,.54.26.68.68,0,0,1,.27.5,1.3,1.3,0,0,1-.09.49,1.52,1.52,0,0,1-.29.45A3.74,3.74,0,0,1,50,27.73a8.57,8.57,0,0,1-2.42.31,6,6,0,0,1-2.52-.6A5.29,5.29,0,0,1,43.09,26a6.54,6.54,0,0,1-.7-1.49,5.39,5.39,0,0,1-.33-1.6,9.33,9.33,0,0,1,.47-3A5.29,5.29,0,0,1,44,17.67a4.13,4.13,0,0,1,1.82-.87A9.37,9.37,0,0,1,48,16.52a4.29,4.29,0,0,1,1.89.34A4,4,0,0,1,51.24,18ZM62,21.56c0-.2,0-.48,0-.87V20c0-.46,0-.8,0-1s0-.69,0-1.49a.87.87,0,0,1,.26-.67,1,1,0,0,1,.72-.25.93.93,0,0,1,.77.25,1.39,1.39,0,0,1,.2.83v.68l0,2c0,.39,0,1,0,1.73l0,1.48c0,.23,0,.54,0,.95s0,.79,0,1.39,0,1,0,1.24a1.1,1.1,0,0,1-.2.63.57.57,0,0,1-.5.29c-.84,0-1.26-.28-1.26-.85,0-.31,0-.66,0-1s0-.7,0-1.26c0-.4,0-1,0-1.71-.56.05-1.53.07-2.91.07H57a5.56,5.56,0,0,1-1-.09l0,2.07c0,.13,0,.49.09,1.06a6.7,6.7,0,0,1,.09,1,.7.7,0,0,1-.32.52,1,1,0,0,1-.58.24,1.06,1.06,0,0,1-.88-.31,1.63,1.63,0,0,1-.24-1V25.34a7,7,0,0,1,0-.71c0-.44,0-1.05,0-1.81s0-1.2,0-1.52,0-1.12,0-2,0-1.38,0-1.76a.88.88,0,0,1,.29-.78,1.1,1.1,0,0,1,.64-.19c.68,0,1,.22,1,.66,0,.79,0,1.55,0,2.27,0,.91,0,1.58,0,2a6.48,6.48,0,0,0,1.1.16c.38,0,.92,0,1.62,0A22.93,22.93,0,0,0,62,21.56Zm7.43-3.5q-.06,1.15-.06,2.22c0,.73,0,1.8.15,3.22,0,.22,0,.65.07,1.31s0,1.25,0,1.79l.38-.06.33,0a1,1,0,0,1,.63.19.8.8,0,0,1,.23.62.46.46,0,0,1-.22.41,1.81,1.81,0,0,1-.75.22c-.35,0-.86.05-1.53.05A14,14,0,0,1,67,27.93a1.45,1.45,0,0,1-.77-.27A.89.89,0,0,1,66,27a.45.45,0,0,1,.2-.42,1.22,1.22,0,0,1,.56-.1h.38l.59,0-.09-2.12c-.07-1.16-.11-2.21-.11-3.17q0-.78.06-2.13l0-1c-.4,0-.72,0-1,0a.81.81,0,0,1-.54-.14,1,1,0,0,1-.13-.6c0-.33.23-.55.69-.65a12.07,12.07,0,0,1,2.12-.14,13.29,13.29,0,0,1,1.64.07c.37.05.56.16.56.33a1,1,0,0,1-.27.81,1.87,1.87,0,0,1-1,.18ZM82,18a4.89,4.89,0,0,1,.38.52.8.8,0,0,1,.1.38.78.78,0,0,1-.28.5.74.74,0,0,1-.54.29,1.2,1.2,0,0,1-.58-.11.9.9,0,0,1-.36-.34,1.81,1.81,0,0,0-.5-.41,4.21,4.21,0,0,0-.9-.45,2.65,2.65,0,0,0-.94-.2,3.52,3.52,0,0,0-1.46.34,3.33,3.33,0,0,0-1.19.85,4.44,4.44,0,0,0-.68,1.4,5.67,5.67,0,0,0-.31,1.75,4.15,4.15,0,0,0,.45,1.92,3.65,3.65,0,0,0,1.34,1.39,4,4,0,0,0,2.1.52,2.8,2.8,0,0,0,1.14-.2,5.77,5.77,0,0,0,1-.57l.67-.4a1.23,1.23,0,0,1,.55-.12.72.72,0,0,1,.54.25.7.7,0,0,1,.27.5,1.28,1.28,0,0,1-.55.94A7.22,7.22,0,0,1,81,27.6a4.29,4.29,0,0,1-1.19.36A12.61,12.61,0,0,1,78.3,28a5.88,5.88,0,0,1-2.52-.6,5.34,5.34,0,0,1-2-1.44,6.54,6.54,0,0,1-.7-1.49,5.65,5.65,0,0,1-.32-1.6,8.5,8.5,0,0,1,.52-3,5.63,5.63,0,0,1,1.49-2.28,3.92,3.92,0,0,1,1.61-.87,6.58,6.58,0,0,1,1.87-.28,4.76,4.76,0,0,1,2,.37A7.69,7.69,0,0,1,82,18Z"/></g></g></svg>