<svg xmlns="http://www.w3.org/2000/svg" viewBox="0 0 94 43"><defs><style>.cls-1{fill:#a8841a;stroke:#765d12;stroke-width:3px;}</style></defs><title>Asset 9</title><g id="Layer_2" data-name="Layer 2"><g id="Layer_1-2" data-name="Layer 1"><rect class="cls-1" x="1.5" y="1.5" width="91" height="40" rx="8.5"/><path d="M30.64,23.23a19.36,19.36,0,0,0,1.26,1.89c.44.54,1,1.21,1.7,2a.4.4,0,0,1,.12.29.51.51,0,0,1-.29.43,1.16,1.16,0,0,1-.66.18,2.13,2.13,0,0,1-1.21-.47,4.17,4.17,0,0,1-1-1.1c-.3-.45-.65-1.05-1.05-1.78-.31-.56-.5-.89-.56-1a7.16,7.16,0,0,1-2.19.36,15,15,0,0,0,.11,1.66c.07.72.1,1.24.1,1.56a.61.61,0,0,1-.32.54,1.14,1.14,0,0,1-.7.22.82.82,0,0,1-.72-.38,3.51,3.51,0,0,1-.33-1.21c0-.46-.07-1-.07-1.67a22.49,22.49,0,0,1,.13-2.32c.07-1,.11-1.67.11-2.13a14.25,14.25,0,0,0-.11-1.49c0-.11,0-.29-.06-.56s0-.5,0-.72a.58.58,0,0,1,.18-.43,1.12,1.12,0,0,1,.41-.27,17.47,17.47,0,0,1,2.85-.23,7.76,7.76,0,0,1,3.9.88,2.89,2.89,0,0,1,1.55,2.68,2.44,2.44,0,0,1-.25,1.08,2.38,2.38,0,0,1-.65.85A6.16,6.16,0,0,1,30.64,23.23Zm1.21-3.11a1.61,1.61,0,0,0-.92-1.41,5.06,5.06,0,0,0-2.61-.56,6.26,6.26,0,0,0-1.49.18l0,.92c0,.53,0,1.05-.06,1.55s-.05,1-.05,1.62a3.29,3.29,0,0,1,.65-.09l.45,0a9.33,9.33,0,0,0,1.22-.18c.54-.17,1-.32,1.33-.45a3.85,3.85,0,0,0,1-.6A1.18,1.18,0,0,0,31.85,20.12Zm8.77-3.57a7.22,7.22,0,0,1,2.2.31,4,4,0,0,1,1.62.86A5.73,5.73,0,0,1,46,20a8.53,8.53,0,0,1,.47,3.1,2.09,2.09,0,0,1-.11.72,8.23,8.23,0,0,1-.3.83,3.68,3.68,0,0,0-.33.88,3.81,3.81,0,0,1-1.18,1.2,7.5,7.5,0,0,1-1.77.94,4.79,4.79,0,0,1-1.67.36q-3.48,0-5-2.38a6.2,6.2,0,0,1-.65-1.38,5,5,0,0,1-.22-1.41A7.31,7.31,0,0,1,36,19.65a5.26,5.26,0,0,1,1.84-2.13,8.8,8.8,0,0,1,1.46-.68A4,4,0,0,1,40.62,16.55Zm-3.43,6.34a2.75,2.75,0,0,0,.43,1.6A7,7,0,0,0,39,25.86l1,.38a2.84,2.84,0,0,0,.61.07,4.11,4.11,0,0,0,2.9-1A3.51,3.51,0,0,0,44.6,22.6a6.29,6.29,0,0,0-.3-2.16A3.41,3.41,0,0,0,43.2,19a2.69,2.69,0,0,0-1.06-.51,5.92,5.92,0,0,0-1.37-.16,2.91,2.91,0,0,0-1.93.67,4.12,4.12,0,0,0-1.24,1.69A5.78,5.78,0,0,0,37.19,22.89ZM57.5,18.33a3.25,3.25,0,0,1,.38.53.78.78,0,0,1,.11.37.8.8,0,0,1-.29.51.77.77,0,0,1-.54.29,1.36,1.36,0,0,1-.58-.11,1,1,0,0,1-.36-.34,4.6,4.6,0,0,0-.79-1,1.65,1.65,0,0,0-1.2-.43,4.73,4.73,0,0,0-1.66.34,3.24,3.24,0,0,0-1.35.85,4.8,4.8,0,0,0-1,3.15,3.93,3.93,0,0,0,1,2.68,3.31,3.31,0,0,0,2.59,1.15,5.49,5.49,0,0,0,1.57-.25,3,3,0,0,0,1.37-.86h0a1.05,1.05,0,0,1,.81-.35.77.77,0,0,1,.54.26.68.68,0,0,1,.27.5,1.3,1.3,0,0,1-.09.49,1.76,1.76,0,0,1-.29.45,3.94,3.94,0,0,1-1.89,1.13,10.16,10.16,0,0,1-2.59.31,5,5,0,0,1-2.32-.58A5.62,5.62,0,0,1,49.35,26a6.14,6.14,0,0,1-.7-1.49,5.39,5.39,0,0,1-.33-1.6,9.33,9.33,0,0,1,.47-3,5.11,5.11,0,0,1,1.44-2.27,4.13,4.13,0,0,1,1.82-.87,9.37,9.37,0,0,1,2.18-.28,3.47,3.47,0,0,1,1.35.23,3.07,3.07,0,0,1,1,.59A9.38,9.38,0,0,1,57.5,18.33ZM70,27a.64.64,0,0,1,.27.24.67.67,0,0,1,.1.41.63.63,0,0,1-.27.54.94.94,0,0,1-.59.22,2.59,2.59,0,0,1-.9-.2,5.45,5.45,0,0,1-2-1.84,29.41,29.41,0,0,1-2.25-3.69c-.69.53-1.38,1-2.09,1.48,0,.25,0,.54,0,.88s0,.56,0,.72c0,.7,0,1.16,0,1.39a1,1,0,0,1-.2.59.68.68,0,0,1-.59.27,1.46,1.46,0,0,1-.83-.18.85.85,0,0,1-.31-.56,11.62,11.62,0,0,1-.14-1.73c0-.62,0-1.52.14-2.7s.15-2,.15-2.53c0-.22,0-.53,0-.94a5,5,0,0,0-.11-.9,6.84,6.84,0,0,1-.07-.81,1.15,1.15,0,0,1,.25-.83,1.06,1.06,0,0,1,.78-.25.91.91,0,0,1,.64.23.84.84,0,0,1,.31.6c.06,1,.09,1.8.09,2.36,0,.3,0,.73-.07,1.29s0,.9-.07,1.05a19.26,19.26,0,0,0,2.39-2,27.14,27.14,0,0,0,2.56-2.57l.23-.27a2.28,2.28,0,0,1,.49-.52.87.87,0,0,1,.54-.15.91.91,0,0,1,.61.24.64.64,0,0,1,.29.52,1.76,1.76,0,0,1-.62,1.21c-1,1-2,2-3,2.88a30.65,30.65,0,0,0,2.07,3.43A7.17,7.17,0,0,0,70,27Z"/></g></g></svg>