<svg xmlns="http://www.w3.org/2000/svg" viewBox="0 0 94 43"><defs><style>.cls-1{fill:#acacac;stroke:#645252;stroke-width:3px;}</style></defs><title>Asset 10</title><g id="Layer_2" data-name="Layer 2"><g id="Layer_1-2" data-name="Layer 1"><rect class="cls-1" x="1.5" y="1.5" width="91" height="40" rx="8.5"/><path d="M31.73,24.74a2.65,2.65,0,0,1-.39,1.46,3.57,3.57,0,0,1-1.26,1.1,4.69,4.69,0,0,1-1.39.54,7.2,7.2,0,0,1-1.6.18A5.29,5.29,0,0,1,25,27.48a4.44,4.44,0,0,1-1.41-1,2,2,0,0,1-.5-1.29,1,1,0,0,1,.22-.71.92.92,0,0,1,.7-.23.83.83,0,0,1,.52.22.74.74,0,0,1,.32.39A2.14,2.14,0,0,0,25.77,26a3.07,3.07,0,0,0,1.57.37,3.75,3.75,0,0,0,1.8-.39,1.2,1.2,0,0,0,.74-1.06,1.41,1.41,0,0,0-.79-1.16,5.45,5.45,0,0,0-1.62-.7,11.5,11.5,0,0,1-2.11-.77,3.63,3.63,0,0,1-1.42-1.15,2.55,2.55,0,0,1-.47-1.44A2.52,2.52,0,0,1,24,18.24a2.89,2.89,0,0,1,1.15-1.06,6.66,6.66,0,0,1,1.22-.38,6.37,6.37,0,0,1,1.28-.21,6.16,6.16,0,0,1,1.15.12,3.73,3.73,0,0,1,1,.36,6,6,0,0,1,1.17.81,1.2,1.2,0,0,1,.38.9.83.83,0,0,1-.25.58,1.11,1.11,0,0,1-.83.25.46.46,0,0,1-.29-.12,3.47,3.47,0,0,1-.36-.38,1.71,1.71,0,0,0-.56-.51,7.16,7.16,0,0,0-.79-.19,3.92,3.92,0,0,0-.9-.11,2.49,2.49,0,0,0-.9.18,2.06,2.06,0,0,0-.79.52,1.06,1.06,0,0,0-.31.76.82.82,0,0,0,.32.63,3.41,3.41,0,0,0,.81.41,10.72,10.72,0,0,0,1.17.38,12.59,12.59,0,0,1,1.35.47,5.94,5.94,0,0,1,1,.5,4.22,4.22,0,0,1,1.28,1.08A2.54,2.54,0,0,1,31.73,24.74Zm.93-7.23c0-.52.38-.78,1.13-.78.33,0,1,0,1.86,0s1.77.07,2.28.07.94,0,1.53-.07l.78,0a4.44,4.44,0,0,1,1.67.36,1.12,1.12,0,0,1,.33.22.57.57,0,0,1,.12.41,1,1,0,0,1-.25.69.8.8,0,0,1-.61.27,9.27,9.27,0,0,1-1.15-.11,6,6,0,0,0-1.17-.13l-.74,0c0,.4-.06,1.34-.06,2.84,0,1.79.06,3.6.17,5.44l0,.52c0,.49-.28.74-.84.74a1,1,0,0,1-.9-.31,1.61,1.61,0,0,1-.24-1c0-.85,0-1.91-.07-3.18-.05-1.06-.07-1.81-.07-2.25s0-1.22.11-2.76l-2.11,0a3.74,3.74,0,0,1-1.4-.18C32.79,18.24,32.66,18,32.66,17.51Zm18.57,8a.53.53,0,0,1,.5.27,1,1,0,0,1,.18.56.94.94,0,0,1-.12.54,1.31,1.31,0,0,1-.44.31,7.54,7.54,0,0,1-1.87.57,12.06,12.06,0,0,1-2.39.22,4.11,4.11,0,0,1-2.36-.54,2.24,2.24,0,0,1-.92-1.3,10.79,10.79,0,0,1-.16-2c0-.89,0-1.76.11-2.61s.2-2,.38-3.3A1.7,1.7,0,0,1,44.82,17a2.09,2.09,0,0,1,1.22-.4l1.82,0,1.57,0c.65,0,1.11,0,1.4.05a3,3,0,0,1,.8.26.46.46,0,0,1,.27.45,1.17,1.17,0,0,1-.26.7.79.79,0,0,1-.72.34c-.37,0-.9,0-1.6-.07s-1.22-.07-1.56-.07a6.55,6.55,0,0,0-.89.05,2.44,2.44,0,0,0-.72.13.4.4,0,0,0-.25.3,22.17,22.17,0,0,0-.25,2.74,7.65,7.65,0,0,0,.81.05c.33,0,.69,0,1.08-.05l.74-.07c.63-.06,1.18-.09,1.63-.09a1,1,0,0,1,.6.14.47.47,0,0,1,.22.4.86.86,0,0,1-.22.61,1.34,1.34,0,0,1-.72.32,12.51,12.51,0,0,1-1.57.2c-.61.05-1.21.07-1.8.07l-.84,0c0,.73-.06,1.41-.06,2,0,.85.57,1.28,1.69,1.28a7,7,0,0,0,1.5-.13c.39-.08.85-.2,1.37-.36A3.48,3.48,0,0,1,51.23,25.55ZM62,26.85a1,1,0,0,1-.09.54,1.25,1.25,0,0,1-.43.3A3.52,3.52,0,0,1,60.3,28a15.43,15.43,0,0,1-1.68.07H57.4A4.21,4.21,0,0,1,55,27.53a2.35,2.35,0,0,1-1-1.33,9.33,9.33,0,0,1-.23-2c0-.27,0-.68,0-1.22,0-1.18.1-2.75.3-4.72A1.63,1.63,0,0,1,54.73,17a2.06,2.06,0,0,1,1.23-.4l1.82,0,1.58,0c.65,0,1.12,0,1.4.05a3.2,3.2,0,0,1,.81.26.48.48,0,0,1,.29.45,1.27,1.27,0,0,1-.23.7.82.82,0,0,1-.72.34c-.37,0-.91,0-1.6-.07s-1.23-.07-1.59-.07a6,6,0,0,0-.88.05,2.31,2.31,0,0,0-.72.13.34.34,0,0,0-.23.3,21.62,21.62,0,0,0-.17,2.74,7.86,7.86,0,0,0,.83.05,11.35,11.35,0,0,0,1.14-.07l.45,0h.61l.63,0,.56,0c.55,0,.82.2.82.59a.83.83,0,0,1-.19.58,1.38,1.38,0,0,1-.71.32,12.79,12.79,0,0,1-2.21.13h-1.1c-.23,0-.51,0-.84,0,0,.22,0,.53,0,.94s0,.9,0,1.12q0,1.26,1.74,1.26l1.23,0,.66,0a2.88,2.88,0,0,0,.78-.09l.59-.18a2,2,0,0,1,.56-.09.58.58,0,0,1,.52.27A.94.94,0,0,1,62,26.85Zm2.8-10.28a.83.83,0,0,1,.9.81,26.5,26.5,0,0,1,.22,3.76l0,2.27v.68c0,.75,0,1.44-.05,2.07.5.05,1,.08,1.34.08s.82,0,1.39,0l1.1,0a4.71,4.71,0,0,1,.83.06,1.93,1.93,0,0,1,.7.21.61.61,0,0,1,.38.61,1,1,0,0,1-.24.65.63.63,0,0,1-.52.29,4.65,4.65,0,0,1-.68-.07,10.37,10.37,0,0,0-1.62-.13,4.24,4.24,0,0,0-.58,0l-.45,0a8.27,8.27,0,0,1-.86.05A12.65,12.65,0,0,1,65,27.82a1.52,1.52,0,0,1-.72-.27.83.83,0,0,1-.36-.72c0-.37,0-.83.06-1.39,0-1.05.07-2,.07-2.82,0-.48,0-1-.06-1.55S64,20.16,63.94,20q-.12-1.47-.12-2.52a.94.94,0,0,1,.21-.68A1,1,0,0,1,64.77,16.57Z"/></g></g></svg>