<svg xmlns="http://www.w3.org/2000/svg" viewBox="0 0 278 127.17"><defs><style>.cls-1{fill:pink;stroke:#ff8fa3;stroke-width:8.87px;}</style></defs><title>Asset 15</title><g id="Layer_2" data-name="Layer 2"><g id="Layer_1-2" data-name="Layer 1"><rect class="cls-1" x="4.44" y="4.44" width="269.12" height="118.3" rx="25.14"/><path d="M81.94,77.93a2.28,2.28,0,0,1-1,1.39,3.68,3.68,0,0,1-2.13.53A2.61,2.61,0,0,1,77,79.21a2.13,2.13,0,0,1-.7-1.33,50.39,50.39,0,0,0,.32-6.71c0-1.77-.1-4.5-.32-8.2-.24-3.47-.37-6.56-.37-9.26,0-1.45.07-2.94.22-4.47a2.37,2.37,0,0,1,.85-1.6,4.36,4.36,0,0,1,2.45-1.06,119.89,119.89,0,0,1,12.4-.53h1.7a10.4,10.4,0,0,1,3.73.69,2.45,2.45,0,0,1,1.86,2.39,2.7,2.7,0,0,1-.53,1.76,2.46,2.46,0,0,1-2,.64,14.33,14.33,0,0,1-1.6-.11l-1.27-.16a22.08,22.08,0,0,0-3.15-.32,37.87,37.87,0,0,0-9.31.86c0,1.17,0,3.07.11,5.69l0,3.41q2.76,0,5-.21l2.5-.32c1.85-.22,3.07-.32,3.67-.32a3.64,3.64,0,0,1,2.13.58,1.84,1.84,0,0,1,.91,1.71q0,2.66-3.73,2.66c-.6,0-1.13,0-1.59,0s-.86.07-1.18.11a29.16,29.16,0,0,1-3,.21c-1.63,0-3,0-4.15.16,0,1.31,0,2.7.16,4.15,0,.46,0,1.17.05,2.13s.11,1.83.11,2.61,0,1.3-.06,1.86A8.12,8.12,0,0,1,81.94,77.93Zm43.83,1.12a9.94,9.94,0,0,1-1.17-2c-.32-.74-.65-1.63-1-2.66l-.64-1.6a10.62,10.62,0,0,0-1.12-2.29,40.18,40.18,0,0,1-5.48.48c-.78,0-1.65,0-2.61-.05s-1.61-.11-2.07-.11q-2.67-.21-4.26-.21a11.61,11.61,0,0,0-1.12,1.81c-.28.64-.66,1.6-1.12,2.87a23.8,23.8,0,0,1-1.65,3.94,2,2,0,0,1-1.86.8,5,5,0,0,1-2.18-.48,1.59,1.59,0,0,1-1-1.43,25.18,25.18,0,0,1,1.33-4.26q1-2.3,2.71-6.07l2.13-5.22q1.75-4.47,3.2-7.66c1-2.13,2.29-4.65,3.88-7.56a2.62,2.62,0,0,1,1.07-1.07,3,3,0,0,1,1.65-.48,4.8,4.8,0,0,1,1.44.16,1.34,1.34,0,0,1,.74.43,7.16,7.16,0,0,1,.8,1.17,40.51,40.51,0,0,1,3.09,5.8q1.32,3,3.35,8.25L125,64.47q1.48,3.82,2.55,6.44A36.66,36.66,0,0,0,130,75.59a4.7,4.7,0,0,1,.85,1.92,2.47,2.47,0,0,1-.79,2,3,3,0,0,1-2,.64A2.77,2.77,0,0,1,125.77,79.05Zm-5.48-12.88c-.57-1.21-1.38-3.3-2.45-6.28a43.73,43.73,0,0,0-3.3-7.62c-.67,1.71-1.67,3.91-3,6.61a56.33,56.33,0,0,0-3,7.24,60.14,60.14,0,0,0,7.34.42A20.34,20.34,0,0,0,120.29,66.17ZM138.64,80a2.49,2.49,0,0,1-2.24-1,5.22,5.22,0,0,1-.58-2.71l.05-6.92-.05-1.07q-.27-5.05-.27-8.36l.21-6.33.06-3.2a21.49,21.49,0,0,1,.1-2.44,2.18,2.18,0,0,1,.69-1.39,2.77,2.77,0,0,1,1.87-.53,2.9,2.9,0,0,1,2.29.8,3.83,3.83,0,0,1,.69,2.61l-.05,1.11q-.22,4.26-.22,6.45c0,1.59,0,3.47.11,5.64s.12,3.64.16,4.52c.18,3.8.26,7.07.26,9.8a3.17,3.17,0,0,1-.69,2.29A3.2,3.2,0,0,1,138.64,80Zm37.62-5.16a1.49,1.49,0,0,1,1.28.69,2.54,2.54,0,0,1-.53,3.62,4.68,4.68,0,0,1-2.67.69A7.91,7.91,0,0,1,170.4,79a7.27,7.27,0,0,1-2.66-3.2,21.74,21.74,0,0,1-.9-2.76,17.29,17.29,0,0,0-1-3,4.38,4.38,0,0,0-1.65-2,5.58,5.58,0,0,0-3.09-.85l-1.17,0c-1.21.07-2.11.11-2.72.11a11.9,11.9,0,0,1-2-.16c.07,4.68.11,8.27.11,10.75a1.88,1.88,0,0,1-1,1.6,3.49,3.49,0,0,1-2.08.64,2.58,2.58,0,0,1-2.18-1.07,8.66,8.66,0,0,1-.64-3.78c0-.56,0-1.38.11-2.44l.05-2.35c0-2.16.09-4.49.27-7,.14-2.84.21-4.91.21-6.23a41.48,41.48,0,0,0-.32-4.42c0-.35-.09-.92-.16-1.7s-.11-1.54-.11-2.18a1.79,1.79,0,0,1,.59-1.28,2.76,2.76,0,0,1,1.17-.75,55.21,55.21,0,0,1,8.62-.69q6.93,0,11.34,2.61a8.64,8.64,0,0,1,4.42,8,7.66,7.66,0,0,1-.85,3.35,7.16,7.16,0,0,1-2,2.66,10.08,10.08,0,0,1-4.47,2.34l1.17,1.07a4.87,4.87,0,0,1,1.43,2l.7,2.13A30.1,30.1,0,0,0,173,74.1a1.58,1.58,0,0,0,1.39,1,2.41,2.41,0,0,0,1-.11A2.46,2.46,0,0,1,176.26,74.85ZM155.13,62.66c1.06.07,1.81.1,2.23.1.64,0,1.53,0,2.66-.1l2.51-.06a8.77,8.77,0,0,0,3.4-.74,8,8,0,0,0,2.93-2.08,5,5,0,0,0-1.28-7.51q-2.45-1.38-7.61-1.38a24.4,24.4,0,0,0-4.63.53c.07,1.28.11,2.2.11,2.77s0,1.69-.11,3l-.05,1.54C155.18,60.26,155.13,61.56,155.13,62.66ZM208.37,48.6q0,1-1.65,2.82-2,2.23-10.28,13.74.1,6.87.43,9.42c.1,1.06.16,1.83.16,2.29a3.4,3.4,0,0,1-.64,2.39,2.9,2.9,0,0,1-2.08.59,3.92,3.92,0,0,1-2.13-.64,2,2,0,0,1-1-1.65c0-2.59-.06-6.39-.16-11.39a2.78,2.78,0,0,0-.43-1.07c-.28-.49-.46-.81-.53-.95-.75-1.32-1.69-2.77-2.82-4.37a25,25,0,0,0-2.88-3.67,35,35,0,0,1-3.67-4.21,6.13,6.13,0,0,1-1.33-2.71,2,2,0,0,1,1-1.76,4.13,4.13,0,0,1,2.29-.69,3.21,3.21,0,0,1,1.44.37,3.09,3.09,0,0,1,1.27,1.07Q188.57,52.86,191,56l2.5,3.25a46.45,46.45,0,0,0,4-4.64q1.76-2.34,3.83-5.53l.9-1.39a3.66,3.66,0,0,1,3.15-1.38,3.61,3.61,0,0,1,2,.59A1.89,1.89,0,0,1,208.37,48.6Z"/></g></g></svg>