<svg xmlns="http://www.w3.org/2000/svg" viewBox="0 0 278 127.17"><defs><style>.cls-1{fill:#9bdbff;stroke:#a1bdf3;stroke-width:8.87px;}</style></defs><title>Asset 17</title><g id="Layer_2" data-name="Layer 2"><g id="Layer_1-2" data-name="Layer 1"><rect class="cls-1" x="4.44" y="4.44" width="269.12" height="118.3" rx="25.14"/><path d="M111,50.46c-.1,2.28-.16,4.46-.16,6.55s.15,5.34.43,9.53c0,.64.11,1.94.21,3.89s.16,3.67.16,5.27c.36,0,.73-.09,1.12-.16a6.79,6.79,0,0,1,1-.11,2.78,2.78,0,0,1,1.86.59,2.24,2.24,0,0,1,.69,1.81,1.37,1.37,0,0,1-.64,1.22,5.47,5.47,0,0,1-2.23.64c-1,.11-2.54.16-4.53.16a42.71,42.71,0,0,1-4.95-.21,4.34,4.34,0,0,1-2.29-.8A2.55,2.55,0,0,1,101,77a1.26,1.26,0,0,1,.58-1.23,3.52,3.52,0,0,1,1.65-.32l1.12,0,1.76.11-.27-6.28q-.32-5.11-.32-9.37,0-2.3.16-6.28l.11-2.93c-1.21.07-2.15.11-2.83.11a2.21,2.21,0,0,1-1.59-.43,2.82,2.82,0,0,1-.37-1.75c0-1,.67-1.64,2-1.92a33.32,33.32,0,0,1,6.28-.43,38.08,38.08,0,0,1,4.84.22c1.1.14,1.65.46,1.65.95a2.86,2.86,0,0,1-.79,2.4,5.58,5.58,0,0,1-2.93.53Zm37.27-.15a10.81,10.81,0,0,1,1.12,1.54,1.85,1.85,0,0,1-.54,2.61,2.23,2.23,0,0,1-1.59.85A3.92,3.92,0,0,1,145.5,55a2.62,2.62,0,0,1-1.06-1,8.63,8.63,0,0,0-2.08-2.18,6.18,6.18,0,0,0-3.83-1,15.51,15.51,0,0,0-5.11,1,9.15,9.15,0,0,0-4,2.5,12,12,0,0,0-1.86,4,19.7,19.7,0,0,0-.74,5.27,12.29,12.29,0,0,0,1.33,5.69,10.55,10.55,0,0,0,3.94,4.1A12,12,0,0,0,138.26,75a11.85,11.85,0,0,0,4.05-.75A9,9,0,0,0,146,71.71h0a3.16,3.16,0,0,1,2.4-1,2.22,2.22,0,0,1,1.59.75,2.11,2.11,0,0,1,.8,1.49,3.7,3.7,0,0,1-.27,1.44,4.46,4.46,0,0,1-.85,1.33,11.11,11.11,0,0,1-5.16,3.35,24.87,24.87,0,0,1-7.13.91,17.64,17.64,0,0,1-7.46-1.76,16,16,0,0,1-5.75-4.26A19,19,0,0,1,122,69.52a16,16,0,0,1-1-4.74A27.69,27.69,0,0,1,122.45,56a15.46,15.46,0,0,1,4.26-6.71,12.17,12.17,0,0,1,5.38-2.55,27.38,27.38,0,0,1,6.44-.85,12.61,12.61,0,0,1,5.59,1A12.09,12.09,0,0,1,148.22,50.31Zm32.45,26.13a2.74,2.74,0,0,1-.27,1.6,3.63,3.63,0,0,1-1.27.9,10.2,10.2,0,0,1-3.41.91,47.23,47.23,0,0,1-4.95.21h-3.62q-4.74,0-7-1.59a7,7,0,0,1-2.87-3.94,28.46,28.46,0,0,1-.7-5.91c0-.82-.05-2-.05-3.62q0-5.22.91-14a4.77,4.77,0,0,1,1.86-3.67,6,6,0,0,1,3.62-1.17c1.1,0,2.89,0,5.38-.11l4.68-.05a36.66,36.66,0,0,1,4.15.16,9.14,9.14,0,0,1,2.4.74,1.45,1.45,0,0,1,.85,1.33,3.67,3.67,0,0,1-.69,2.08,2.41,2.41,0,0,1-2.13,1q-1.65,0-4.74-.21c-2.06-.14-3.62-.22-4.68-.22a20.54,20.54,0,0,0-2.61.16,7.2,7.2,0,0,0-2.13.38,1,1,0,0,0-.69.9,65.18,65.18,0,0,0-.48,8.09,18.22,18.22,0,0,0,2.45.16c.81,0,1.93-.07,3.35-.21.35,0,.8-.07,1.33-.11s1.14-.05,1.81-.05c.39,0,1,0,1.86.11l1.65.05c1.64,0,2.45.59,2.45,1.76a2.42,2.42,0,0,1-.58,1.7,4,4,0,0,1-2.08,1,40.31,40.31,0,0,1-6.55.37h-3.24c-.68,0-1.51,0-2.51-.11,0,.64,0,1.57,0,2.77,0,1.56,0,2.66,0,3.3q.17,3.73,5.17,3.73c1.13,0,2.34,0,3.62.11l2,0a8.21,8.21,0,0,0,2.29-.27c.6-.21,1.18-.39,1.75-.53a5.89,5.89,0,0,1,1.65-.27,1.76,1.76,0,0,1,1.55.8A2.82,2.82,0,0,1,180.67,76.44Z"/></g></g></svg>