<svg xmlns="http://www.w3.org/2000/svg" viewBox="0 0 278 127.17"><defs><style>.cls-1{fill:#d70fd7;stroke:purple;stroke-width:8.87px;}</style></defs><title>Asset 14</title><g id="Layer_2" data-name="Layer 2"><g id="Layer_1-2" data-name="Layer 1"><rect class="cls-1" x="4.44" y="4.44" width="269.12" height="118.3" rx="25.14"/><path d="M62.46,70.78c-1.39,0-2.56,0-3.52-.11s-2.14-.27-3.67-.48l-.05,5.59c0,1-.06,2.32-.06,4.1a3,3,0,0,1-.79,2.18,2.36,2.36,0,0,1-1.71.75,6,6,0,0,1-2.61-.43,1.75,1.75,0,0,1-.85-1.65c0-1,.09-2.48.27-4.36q.59-6.08.58-12.46,0-6-.37-11.23A3.55,3.55,0,0,1,50.43,51a2.56,2.56,0,0,1,1.86-1.06,27,27,0,0,0,3.89-.43,30.32,30.32,0,0,1,4.2-.42,21,21,0,0,1,6.76.85A16.69,16.69,0,0,1,72,52.73q2.65,4.16,2.66,5.86a13.51,13.51,0,0,1-1.44,6.33,10.21,10.21,0,0,1-4.2,4.31A13.36,13.36,0,0,1,62.46,70.78Zm-1.23-17.2a17.44,17.44,0,0,0-3,.22,28.23,28.23,0,0,0-3,.58c.14,3.27.21,5.64.21,7.13a37.34,37.34,0,0,1-.16,3.84c1.53.32,2.74.53,3.62.64s1.88.1,3,.1q3.94,0,5.54-2a7.49,7.49,0,0,0,1.65-4.79,5.42,5.42,0,0,0-.48-2,5.18,5.18,0,0,0-.85-1.55A7.92,7.92,0,0,0,65,54.06,11.43,11.43,0,0,0,61.23,53.58ZM94.36,49a21.66,21.66,0,0,1,6.49.91,11.79,11.79,0,0,1,4.79,2.55,16.8,16.8,0,0,1,4.69,6.66,25.62,25.62,0,0,1,1.38,9.15,6.52,6.52,0,0,1-.32,2.13,19.66,19.66,0,0,1-.9,2.45,10.73,10.73,0,0,0-1,2.61A11.43,11.43,0,0,1,106,79a22.87,22.87,0,0,1-5.22,2.77,14.33,14.33,0,0,1-5,1.07q-10.27,0-14.64-7a18.86,18.86,0,0,1-1.92-4.1,14.58,14.58,0,0,1-.63-4.15,21.52,21.52,0,0,1,1.91-9.42A15.13,15.13,0,0,1,86,51.83a24.86,24.86,0,0,1,4.31-2A11.8,11.8,0,0,1,94.36,49ZM84.19,67.69a8.23,8.23,0,0,0,1.28,4.74,21.63,21.63,0,0,0,4,4c1.49.57,2.5.94,3,1.12a7.09,7.09,0,0,0,1.81.21,12.2,12.2,0,0,0,8.57-2.92,10.38,10.38,0,0,0,3.19-8,18.3,18.3,0,0,0-.9-6.39A10.09,10.09,0,0,0,102,56.24a7.85,7.85,0,0,0-3.14-1.49,16.16,16.16,0,0,0-4-.48,8.7,8.7,0,0,0-5.7,2,12.25,12.25,0,0,0-3.67,5A17.23,17.23,0,0,0,84.19,67.69ZM121.38,83a2.5,2.5,0,0,1-2.24-1,5.26,5.26,0,0,1-.58-2.72l0-6.92,0-1.06q-.27-5.06-.27-8.36l.22-6.33,0-3.2a19.26,19.26,0,0,1,.11-2.45,2.16,2.16,0,0,1,.69-1.38,2.68,2.68,0,0,1,1.86-.53,2.85,2.85,0,0,1,2.29.8,3.8,3.8,0,0,1,.69,2.6l0,1.12q-.21,4.26-.21,6.44c0,1.6,0,3.48.1,5.65s.13,3.63.16,4.52c.18,3.8.27,7.06.27,9.8a3.14,3.14,0,0,1-.69,2.28A3.2,3.2,0,0,1,121.38,83ZM156,73.65a7,7,0,0,1-1.06,4,11.07,11.07,0,0,1-3.67,3,14.94,14.94,0,0,1-4,1.65,20.12,20.12,0,0,1-4.63.53,12.59,12.59,0,0,1-3.36-.53,26.23,26.23,0,0,1-3-1.12l-.9-.8A25.54,25.54,0,0,1,132,77.32a4.88,4.88,0,0,1-.9-3,2.93,2.93,0,0,1,.64-2.07,2.69,2.69,0,0,1,2.07-.7,2.28,2.28,0,0,1,1.39.48,4.37,4.37,0,0,1,1.11,1.33,9.35,9.35,0,0,0,3.14,3.46,8.68,8.68,0,0,0,4.37,1.07,9.17,9.17,0,0,0,4.74-1.44c1.31-.81,2-1.61,2-2.39a4.14,4.14,0,0,0-1.87-3.46,17.68,17.68,0,0,0-5.21-2.51,66,66,0,0,1-6.23-2.76A10.71,10.71,0,0,1,133,61.94a7.45,7.45,0,0,1-1.38-4.26A6.67,6.67,0,0,1,133,53.74a9.12,9.12,0,0,1,3.46-2.93,18.53,18.53,0,0,1,3.41-1.11,14.57,14.57,0,0,1,3.51-.64,11.81,11.81,0,0,1,3.78.53A14.44,14.44,0,0,1,150.27,51a17.89,17.89,0,0,1,3.46,2.4A3.51,3.51,0,0,1,154.85,56a2.34,2.34,0,0,1-.74,1.7,3.25,3.25,0,0,1-2.45.75,1.27,1.27,0,0,1-.85-.37A11,11,0,0,1,149.74,57a4.78,4.78,0,0,0-1.65-1.49c-.14,0-.73-.27-1.76-.69a9.37,9.37,0,0,0-3.72-.64,7,7,0,0,0-3.78,1A3.08,3.08,0,0,0,137.18,58q0,1.86,3.35,3,3.57,1.39,5.91,2.4a32.26,32.26,0,0,1,4.63,2.4,11.77,11.77,0,0,1,3.73,3.24A7.74,7.74,0,0,1,156,73.65ZM177.56,49a17.79,17.79,0,0,1,5.85.85,12.42,12.42,0,0,1,4.42,2.61,16.8,16.8,0,0,1,4.69,6.66,25.62,25.62,0,0,1,1.38,9.15,8.9,8.9,0,0,1-.37,2.61,29.66,29.66,0,0,1-1.12,2.87l-.69,1.71a8.62,8.62,0,0,1-3.09,3.78,20,20,0,0,1-5.27,2.71,16.31,16.31,0,0,1-5.32,1,21.38,21.38,0,0,1-8.57-1.59,14.43,14.43,0,0,1-6-5.17,16.29,16.29,0,0,1-2.61-8.62,21.52,21.52,0,0,1,1.92-9.42,15.13,15.13,0,0,1,5.43-6.28,21.65,21.65,0,0,1,4.68-2A16.4,16.4,0,0,1,177.56,49ZM166.48,67.53a10.21,10.21,0,0,0,5,8.89,9.87,9.87,0,0,0,5.11,1.38q5.7,0,8.68-2.87c2-1.92,3-4.61,3-8.09a18.3,18.3,0,0,0-.9-6.39,10.17,10.17,0,0,0-3.25-4.21,7.64,7.64,0,0,0-2.77-1.49A11.73,11.73,0,0,0,172,56a11.22,11.22,0,0,0-4.05,4.74A15.67,15.67,0,0,0,166.48,67.53Zm56.2-14.64a5,5,0,0,1,.69-2.66,2.44,2.44,0,0,1,2.19-1.17,4.82,4.82,0,0,1,2.18.48,1.65,1.65,0,0,1,1,1.59q0,2.19-.22,6.13c-.14,2.55-.21,4.45-.21,5.69q0,2.92.21,7.83.22,4.68.22,6.86,0,1.76-.06,2.61a2.39,2.39,0,0,1-.95,1.71,5.26,5.26,0,0,1-4.58.47,2.48,2.48,0,0,1-1-.79q-2.51-3-7.29-10.33-5.38-8.15-8.79-12.46a85.26,85.26,0,0,1,.43,9.37q0,2.44-.11,6.39c0,2.59-.1,4.29-.21,5.11a4.47,4.47,0,0,1-1,2.4,2.82,2.82,0,0,1-2.23.79,2.25,2.25,0,0,1-1.76-.64,4.34,4.34,0,0,1-.64-2.34c0-1.45,0-3.64.27-6.55,0-.46.08-1.26.16-2.39s.1-2.15.1-3q0-3.67-.37-8.42c-.21-3.47-.32-6-.32-7.71a2.31,2.31,0,0,1,.91-2,3.55,3.55,0,0,1,2.18-.7,5.31,5.31,0,0,1,2.23.54q4.59,5.74,12.41,17.14l5,7.66c0-.57.05-1.36.05-2.39,0-1.81,0-3.76-.1-5.86S223,62.74,223,62Q222.68,56.83,222.68,52.89Z"/></g></g></svg>