<svg xmlns="http://www.w3.org/2000/svg" viewBox="0 0 278 127.17"><defs><style>.cls-1{fill:#4fbdfb;stroke:#2254b4;stroke-width:8.87px;}</style></defs><title>Asset 13</title><g id="Layer_2" data-name="Layer 2"><g id="Layer_1-2" data-name="Layer 1"><rect class="cls-1" x="4.44" y="4.44" width="269.12" height="118.3" rx="25.14"/><path d="M91.81,49.08a4.59,4.59,0,0,1,1-1.81,1.82,1.82,0,0,1,1.39-.74,4,4,0,0,1,2.61.69,3,3,0,0,1,.79,2.39,13.45,13.45,0,0,1-.74,2.72q-1.65,5.06-3.62,12.51c-.32,1.13-.59,2.13-.8,3s-.34,1.56-.48,2.13c-.85,3.65-1.6,6.4-2.23,8.25a2.66,2.66,0,0,1-1.12,1.28,3.64,3.64,0,0,1-1.71.42,4.73,4.73,0,0,1-1.81-.37,3.18,3.18,0,0,1-1.22-1q-1.65-3.24-4.1-8.83T76,59.89Q72.7,68.24,70.1,76c-.11.32-.24.67-.38,1.06s-.23.73-.37,1.12a3.17,3.17,0,0,1-1.06,1.28,3,3,0,0,1-1.55.42,4.79,4.79,0,0,1-1.86-.37,2.75,2.75,0,0,1-1.23-1A20,20,0,0,1,62.16,75c-.49-1.63-1.17-3.92-2-6.86l-1.33-4.53c-.92-3-1.72-6-2.4-9.05a43.64,43.64,0,0,1-1-5.54,2,2,0,0,1,1.12-1.75,4.24,4.24,0,0,1,2.24-.69,2.58,2.58,0,0,1,1.33.42,1.86,1.86,0,0,1,.9,1.33q1.86,10,5.49,23.11,1.38-3.3,3-8t3.25-9.21l.53-1.6a1.9,1.9,0,0,1,1.06-1.22,3.86,3.86,0,0,1,1.81-.48,3,3,0,0,1,1.92.58,2.63,2.63,0,0,1,1,1.28q0,.21,2.13,6.34a125.22,125.22,0,0,0,5,12.35,100.27,100.27,0,0,0,2.55-10.07l.8-3.51Q90.91,52.17,91.81,49.08Zm34.54,30a9.94,9.94,0,0,1-1.17-2c-.32-.74-.66-1.63-1-2.66l-.64-1.6a11.1,11.1,0,0,0-1.12-2.29,40.31,40.31,0,0,1-5.48.48c-.78,0-1.65,0-2.61-.05s-1.62-.11-2.08-.11q-2.65-.21-4.26-.21a12.41,12.41,0,0,0-1.12,1.81c-.28.64-.65,1.6-1.11,2.87a23.8,23.8,0,0,1-1.65,3.94,2,2,0,0,1-1.87.8,5,5,0,0,1-2.18-.48,1.59,1.59,0,0,1-1-1.43,26.13,26.13,0,0,1,1.33-4.26q1-2.3,2.72-6.07l2.13-5.22q1.76-4.47,3.19-7.66c1-2.13,2.29-4.65,3.89-7.56a2.59,2.59,0,0,1,1.06-1.07,3,3,0,0,1,1.65-.48,4.71,4.71,0,0,1,1.44.16,1.34,1.34,0,0,1,.75.43,7.32,7.32,0,0,1,.79,1.17,39.53,39.53,0,0,1,3.09,5.8q1.34,3,3.36,8.25l1.11,2.83q1.5,3.82,2.56,6.44a35.43,35.43,0,0,0,2.45,4.68,4.85,4.85,0,0,1,.85,1.92,2.48,2.48,0,0,1-.8,2,3,3,0,0,1-2,.64A2.74,2.74,0,0,1,126.35,79.05Zm-5.48-12.88q-.86-1.82-2.45-6.28a43.73,43.73,0,0,0-3.3-7.62c-.68,1.71-1.67,3.91-3,6.61a59.37,59.37,0,0,0-3,7.24,60.19,60.19,0,0,0,7.35.42A20.4,20.4,0,0,0,120.87,66.17Zm12-17.36c0-1.52,1.11-2.28,3.35-2.28,1,0,2.79,0,5.48.1,3,.14,5.24.22,6.76.22,1.25,0,2.75-.08,4.53-.22,1.21-.07,2-.1,2.29-.1a12.58,12.58,0,0,1,5,1.06,3.28,3.28,0,0,1,1,.64,1.68,1.68,0,0,1,.37,1.22,3,3,0,0,1-.75,2,2.37,2.37,0,0,1-1.81.79,26.2,26.2,0,0,1-3.4-.31,18.94,18.94,0,0,0-3.46-.38q-1.44,0-2.19.06-.15,1.76-.15,8.41,0,7.92.47,16.07l.11,1.55c0,1.45-.83,2.18-2.5,2.18a3.18,3.18,0,0,1-2.66-.91,4.88,4.88,0,0,1-.69-2.87c0-2.52-.08-5.66-.22-9.42-.14-3.13-.21-5.34-.21-6.66,0-.88.11-3.6.32-8.14l-6.23,0a11.26,11.26,0,0,1-4.15-.53C133.27,51,132.88,50.13,132.88,48.81Zm57.31,27.63a2.82,2.82,0,0,1-.27,1.6,3.59,3.59,0,0,1-1.28.9,10.13,10.13,0,0,1-3.41.91,47,47,0,0,1-4.95.21h-3.62c-3.15,0-5.5-.53-7-1.59a7,7,0,0,1-2.88-3.94,27.87,27.87,0,0,1-.69-5.91c0-.82,0-2,0-3.62q0-5.22.9-14a4.8,4.8,0,0,1,1.87-3.67,6,6,0,0,1,3.62-1.17c1.1,0,2.89,0,5.37-.11l4.69-.05a36.78,36.78,0,0,1,4.15.16A9.18,9.18,0,0,1,189,47a1.44,1.44,0,0,1,.86,1.33,3.61,3.61,0,0,1-.7,2.08,2.41,2.41,0,0,1-2.13,1c-1.1,0-2.68-.07-4.73-.21s-3.62-.22-4.69-.22a20.54,20.54,0,0,0-2.61.16,7.34,7.34,0,0,0-2.13.38,1,1,0,0,0-.69.9,65.18,65.18,0,0,0-.48,8.09,18.44,18.44,0,0,0,2.45.16q1.23,0,3.36-.21c.35,0,.79-.07,1.33-.11s1.13-.05,1.81-.05c.39,0,1,0,1.86.11l1.65.05c1.63,0,2.45.59,2.45,1.76a2.42,2.42,0,0,1-.59,1.7,3.84,3.84,0,0,1-2.07,1,40.31,40.31,0,0,1-6.55.37h-3.25c-.67,0-1.51,0-2.5-.11,0,.64,0,1.57,0,2.77,0,1.56,0,2.66,0,3.3q.17,3.73,5.16,3.73c1.14,0,2.35,0,3.62.11l2,0a8.11,8.11,0,0,0,2.29-.27c.61-.21,1.19-.39,1.76-.53a5.78,5.78,0,0,1,1.65-.27,1.74,1.74,0,0,1,1.54.8A2.76,2.76,0,0,1,190.19,76.44Zm23.45-10.7a83.92,83.92,0,0,0,8.67,12.51,1.33,1.33,0,0,1,.43,1,1.37,1.37,0,0,1-.85,1.17,3.61,3.61,0,0,1-2,.53,6.25,6.25,0,0,1-3.57-1.38,9.57,9.57,0,0,1-2.55-2.82q-1.17-1.92-2.66-4.9L210.23,70c-.92-1.67-1.47-2.64-1.65-2.93a11.64,11.64,0,0,1-2.71.7c-1,.14-2.29.26-3.78.37q.1,6.81.1,9.53a2.1,2.1,0,0,1-.74,1.65,2.94,2.94,0,0,1-1.87.58,2.42,2.42,0,0,1-2.13-1.11,11,11,0,0,1-.74-4.64l0-3.88c0-2.42.06-4.7.16-6.87q.11-4.26.11-6.28l.05-2.72a19.53,19.53,0,0,0-.16-2.5,4.28,4.28,0,0,1-1.49-.8,1.73,1.73,0,0,1-.64-1.27,2.34,2.34,0,0,1,1-2,5.52,5.52,0,0,1,2.5-.95,52.14,52.14,0,0,1,8.41-.7,23.13,23.13,0,0,1,11.56,2.61,8.54,8.54,0,0,1,4.57,7.93,7.24,7.24,0,0,1-.74,3.2,7.07,7.07,0,0,1-1.92,2.5A17.61,17.61,0,0,1,213.64,65.74Zm3.51-9.21a4.73,4.73,0,0,0-2.71-4.15c-1.78-1.1-4.33-1.65-7.67-1.65a20,20,0,0,0-4.47.53c.07,1.28.11,2.19.11,2.72,0,1.06-.08,2.59-.22,4.58s-.1,3.58-.1,4.79a23.9,23.9,0,0,0,6.81-1c1.56-.46,2.87-.91,3.94-1.33a10.83,10.83,0,0,0,2.93-1.76A3.53,3.53,0,0,0,217.15,56.53Z"/></g></g></svg>